<svg width="25" height="24" viewBox="0 0 25 24" fill="none" xmlns="http://www.w3.org/2000/svg">
<path fill-rule="evenodd" clip-rule="evenodd" d="M12.5 21.1667C17.5468 21.1667 21.6381 17.0626 21.6381 12C21.6381 6.93739 17.5468 2.83333 12.5 2.83333C7.45306 2.83333 3.36175 6.93739 3.36175 12C3.36175 17.0626 7.45306 21.1667 12.5 21.1667ZM22.4689 12C22.4689 17.5228 18.0056 22 12.5 22C6.99425 22 2.53101 17.5228 2.53101 12C2.53101 6.47715 6.99425 2 12.5 2C18.0056 2 22.4689 6.47715 22.4689 12Z" fill="black"/>
<path d="M21.6381 12C21.6381 17.0626 17.5468 21.1667 12.5 21.1667C7.45306 21.1667 3.36175 17.0626 3.36175 12C3.36175 6.93739 7.45306 2.83333 12.5 2.83333C17.5468 2.83333 21.6381 6.93739 21.6381 12Z" fill="#FCEA2B"/>
<path fill-rule="evenodd" clip-rule="evenodd" d="M18.585 16.3795C18.8496 15.7349 18.9831 15.0438 18.9777 14.3467C18.9743 13.9132 18.5578 13.9327 18.2627 14.0046C14.5718 14.903 10.5585 14.7906 6.84469 14.0037C6.53239 13.9376 6.02553 13.8839 6.02221 14.347C6.01709 15.0618 6.27688 15.7498 6.50721 16.3225L6.50794 16.3243C7.32263 18.3235 9.31349 19.65 12.5145 19.65C15.6761 19.65 17.757 18.3609 18.584 16.3819L18.585 16.3795ZM6.90491 14.8667C6.96502 15.172 7.07191 15.4845 7.19716 15.8074C8.46781 16.0799 13.1945 16.9496 17.892 15.8659C18.0039 15.5513 18.0796 15.2252 18.1179 14.8941C14.4687 15.713 10.5673 15.5969 6.90491 14.8667ZM17.3919 16.8233C13.3605 17.6022 9.44669 17.0777 7.67053 16.7508C8.49083 17.9729 10.0353 18.8167 12.5145 18.8167C14.9537 18.8167 16.5448 18.004 17.3919 16.8233Z" fill="black"/>
<path fill-rule="evenodd" clip-rule="evenodd" d="M7.67053 16.7508C9.44669 17.0777 13.3605 17.6022 17.3919 16.8233C16.5448 18.004 14.9537 18.8167 12.5145 18.8167C10.0353 18.8167 8.49083 17.9729 7.67053 16.7508Z" fill="#EA5A47"/>
<path d="M7.19716 15.8074C7.07191 15.4845 6.96502 15.172 6.90491 14.8667C10.5673 15.5969 14.4687 15.713 18.1179 14.8941C18.0796 15.2252 18.0039 15.5513 17.892 15.8659C13.1945 16.9496 8.46781 16.0799 7.19716 15.8074Z" fill="white"/>
<path fill-rule="evenodd" clip-rule="evenodd" d="M7.62115 9.71724C8.00696 9.46569 8.45722 9.33181 8.91736 9.33181C9.3775 9.33181 9.82776 9.46569 10.2136 9.71724C10.5994 9.96878 10.9042 10.3272 11.091 10.749C11.1841 10.9593 11.0897 11.2055 10.88 11.2989C10.6704 11.3924 10.4249 11.2976 10.3318 11.0873C10.2102 10.8129 10.0119 10.5796 9.76084 10.416C9.50979 10.2523 9.21679 10.1651 8.91736 10.1651C8.61794 10.1651 8.32494 10.2523 8.07388 10.416C7.82283 10.5796 7.62449 10.8129 7.50292 11.0873C7.40978 11.2976 7.16432 11.3924 6.95468 11.2989C6.74503 11.2055 6.65059 10.9593 6.74373 10.749C6.93056 10.3272 7.23535 9.96878 7.62115 9.71724Z" fill="black"/>
<path fill-rule="evenodd" clip-rule="evenodd" d="M14.7863 9.71724C15.1721 9.46569 15.6224 9.33181 16.0825 9.33181C16.5427 9.33181 16.9929 9.46569 17.3787 9.71724C17.7646 9.96878 18.0693 10.3272 18.2562 10.749C18.3493 10.9593 18.2549 11.2055 18.0452 11.2989C17.8356 11.3924 17.5901 11.2976 17.497 11.0873C17.3754 10.8129 17.1771 10.5796 16.926 10.416C16.675 10.2523 16.382 10.1651 16.0825 10.1651C15.7831 10.1651 15.4901 10.2523 15.2391 10.416C14.988 10.5796 14.7897 10.8129 14.6681 11.0873C14.575 11.2976 14.3295 11.3924 14.1199 11.2989C13.9102 11.2055 13.8158 10.9593 13.9089 10.749C14.0957 10.3272 14.4005 9.96878 14.7863 9.71724Z" fill="black"/>
<path fill-rule="evenodd" clip-rule="evenodd" d="M19.976 3.25001C20.1086 3.24981 20.2333 3.31309 20.3117 3.42035L20.3502 3.47309C20.3864 3.52283 20.8008 4.09555 21.208 4.77964C21.4113 5.12126 21.6176 5.49861 21.7743 5.8574C21.9252 6.20281 22.0535 6.58213 22.0535 6.91062C22.0535 8.0883 21.1423 9.08335 19.9767 9.08335C18.811 9.08335 17.8998 8.08832 17.8998 6.9108C17.8998 6.58233 18.0282 6.20302 18.1791 5.85762C18.3358 5.49885 18.5421 5.1215 18.7454 4.77989C19.1518 4.09701 19.5655 3.5251 19.603 3.47361L19.6409 3.42139C19.7189 3.31389 19.8434 3.25022 19.976 3.25001ZM19.9768 4.39225C19.8288 4.61194 19.6427 4.89793 19.4587 5.20706C19.2645 5.53347 19.0773 5.87773 18.94 6.19209C18.7968 6.51981 18.7306 6.76514 18.7306 6.91078M19.9768 4.39225C20.1248 4.61193 20.3108 4.8978 20.4947 5.20681C20.6889 5.53322 20.8761 5.87748 21.0134 6.19184C21.1565 6.51957 21.2228 6.76493 21.2228 6.91062C21.2228 7.6696 20.6432 8.25001 19.9767 8.25001C19.3101 8.25001 18.7306 7.66957 18.7306 6.91078" fill="black"/>
<path d="M19.4587 5.20706C19.6427 4.89793 19.8288 4.61194 19.9768 4.39225C20.1248 4.61193 20.3108 4.8978 20.4947 5.20681C20.6889 5.53322 20.8761 5.87748 21.0134 6.19184C21.1565 6.51957 21.2228 6.76493 21.2228 6.91062C21.2228 7.6696 20.6432 8.25001 19.9767 8.25001C19.3101 8.25001 18.7306 7.66957 18.7306 6.91078C18.7306 6.76514 18.7968 6.51981 18.94 6.19209C19.0773 5.87773 19.2645 5.53347 19.4587 5.20706Z" fill="#92D3F5"/>
</svg>
