<svg width="100" height="100" viewBox="0 0 100 100" fill="none" xmlns="http://www.w3.org/2000/svg">
<path d="M17.7083 1.50006H82.2917C92.0833 1.50006 100 9.41673 100 19.2084V81.2917C100 91.0834 92.0833 99.0001 82.2917 99.0001H17.7083C7.91667 99.0001 0 91.0834 0 81.2917V19.2084C0 9.41673 7.91667 1.50006 17.7083 1.50006Z" fill="#001E36"/>
<path d="M22.5 69.8751V27.0001C22.5 26.7084 22.625 26.5417 22.9167 26.5417C23.625 26.5417 24.2917 26.5417 25.25 26.5001C26.25 26.4584 27.2917 26.4584 28.4167 26.4167C29.5417 26.3751 30.75 26.3751 32.0417 26.3334C33.3333 26.2917 34.5833 26.2917 35.8333 26.2917C39.25 26.2917 42.0833 26.7084 44.4167 27.5834C46.5 28.2917 48.4167 29.4584 50 31.0001C51.3333 32.3334 52.375 33.9584 53.0417 35.7501C53.6667 37.5001 54 39.2917 54 41.1667C54 44.7501 53.1667 47.7084 51.5 50.0417C49.8333 52.3751 47.5 54.1251 44.7917 55.1251C41.9583 56.1667 38.8333 56.5417 35.4167 56.5417C34.4167 56.5417 33.75 56.5417 33.3333 56.5001C32.9167 56.4584 32.3333 56.4584 31.5417 56.4584V69.8334C31.5833 70.1251 31.375 70.3751 31.0833 70.4167C31.0417 70.4167 31 70.4167 30.9167 70.4167H23C22.6667 70.4167 22.5 70.2501 22.5 69.8751ZM31.5833 34.5834V48.5834C32.1667 48.6251 32.7083 48.6667 33.2083 48.6667H35.4167C37.0417 48.6667 38.6667 48.4167 40.2083 47.9167C41.5417 47.5417 42.7083 46.7501 43.625 45.7084C44.5 44.6667 44.9167 43.2501 44.9167 41.4167C44.9583 40.1251 44.625 38.8334 43.9583 37.7084C43.25 36.6251 42.25 35.7917 41.0417 35.3334C39.5 34.7084 37.8333 34.4584 36.125 34.5001C35.0417 34.5001 34.0833 34.5001 33.2917 34.5417C32.4583 34.5001 31.875 34.5417 31.5833 34.5834Z" fill="#31A8FF"/>
<path d="M80 46.0417C78.75 45.3751 77.4166 44.9167 76 44.6251C74.4583 44.2917 72.9166 44.0834 71.3333 44.0834C70.5 44.0417 69.625 44.1667 68.8333 44.3751C68.2916 44.5001 67.8333 44.7917 67.5416 45.2084C67.3333 45.5417 67.2083 45.9584 67.2083 46.3334C67.2083 46.7084 67.375 47.0834 67.625 47.4167C68 47.8751 68.5 48.2501 69.0416 48.5417C70 49.0417 71 49.5001 72 49.9167C74.25 50.6667 76.4166 51.7084 78.4166 52.9584C79.7916 53.8334 80.9166 55.0001 81.7083 56.4167C82.375 57.7501 82.7083 59.2084 82.6666 60.7084C82.7083 62.6667 82.125 64.6251 81.0416 66.2501C79.875 67.9167 78.25 69.2084 76.375 69.9584C74.3333 70.8334 71.8333 71.2917 68.8333 71.2917C66.9166 71.2917 65.0416 71.1251 63.1666 70.7501C61.7083 70.5001 60.25 70.0417 58.9166 69.4167C58.625 69.2501 58.4166 68.9584 58.4583 68.6251V61.3751C58.4583 61.2501 58.5 61.0834 58.625 61.0001C58.75 60.9167 58.875 60.9584 59 61.0417C60.625 62.0001 62.3333 62.6667 64.1666 63.0834C65.75 63.5001 67.4166 63.7084 69.0833 63.7084C70.6666 63.7084 71.7916 63.5001 72.5416 63.1251C73.2083 62.8334 73.6666 62.1251 73.6666 61.3751C73.6666 60.7917 73.3333 60.2501 72.6666 59.7084C72 59.1667 70.625 58.5417 68.5833 57.7501C66.4583 57.0001 64.5 56.0001 62.6666 54.7501C61.375 53.8334 60.2916 52.6251 59.5 51.2084C58.8333 49.8751 58.5 48.4167 58.5416 46.9584C58.5416 45.1667 59.0416 43.4584 59.9583 41.9167C61 40.2501 62.5416 38.9167 64.3333 38.0834C66.2916 37.0834 68.75 36.6251 71.7083 36.6251C73.4166 36.6251 75.1666 36.7501 76.875 37.0001C78.125 37.1667 79.3333 37.5001 80.4583 37.9584C80.625 38.0001 80.7916 38.1667 80.875 38.3334C80.9166 38.5001 80.9583 38.6667 80.9583 38.8334V45.6251C80.9583 45.7917 80.875 45.9584 80.75 46.0417C80.375 46.1251 80.1666 46.1251 80 46.0417Z" fill="#31A8FF"/>
</svg>
