<svg width="100" height="100" viewBox="0 0 100 100" fill="none" xmlns="http://www.w3.org/2000/svg">
<path d="M17.7083 1.5H82.2917C92.0833 1.5 100 9.41667 100 19.2083V81.2917C100 91.0833 92.0833 99 82.2917 99H17.7083C7.91667 99 0 91.0833 0 81.2917V19.2083C0 9.41667 7.91667 1.5 17.7083 1.5Z" fill="#330000"/>
<path d="M48.3333 59.8333H32.8333L29.6666 69.625C29.5833 70 29.25 70.25 28.875 70.2083H21.0416C20.5833 70.2083 20.4583 69.9583 20.5833 69.4583L34 30.8333C34.125 30.4167 34.25 29.9583 34.4166 29.4583C34.5833 28.5833 34.6666 27.6667 34.6666 26.75C34.625 26.5417 34.7916 26.3333 35 26.2917H45.7916C46.125 26.2917 46.2916 26.4167 46.3333 26.625L61.5416 69.5417C61.6666 70 61.5416 70.2083 61.125 70.2083H52.4166C52.125 70.25 51.8333 70.0417 51.75 69.75L48.3333 59.8333ZM35.25 51.375H45.8333C45.5833 50.5 45.25 49.4583 44.875 48.375C44.5 47.25 44.125 46.0417 43.75 44.7917C43.3333 43.5 42.9583 42.25 42.5416 40.9583C42.125 39.6667 41.75 38.4583 41.4166 37.25C41.0833 36.0833 40.7916 35 40.5 34H40.4166C40.0416 35.7917 39.5833 37.5833 39 39.375C38.375 41.375 37.75 43.4583 37.0833 45.5417C36.5 47.6667 35.875 49.625 35.25 51.375ZM70.8333 33.5833C69.4583 33.625 68.125 33.0833 67.125 32.125C66.1666 31.0833 65.6666 29.7083 65.7083 28.2917C65.6666 26.875 66.2083 25.5417 67.2083 24.5833C68.2083 23.625 69.5416 23.125 70.9166 23.125C72.5416 23.125 73.7916 23.625 74.7083 24.5833C75.625 25.5833 76.125 26.9167 76.0833 28.2917C76.125 29.7083 75.625 31.0833 74.625 32.125C73.6666 33.125 72.25 33.6667 70.8333 33.5833ZM66.1666 69.75V37.6667C66.1666 37.25 66.3333 37.0833 66.7083 37.0833H74.9583C75.3333 37.0833 75.5 37.2917 75.5 37.6667V69.75C75.5 70.2083 75.3333 70.4167 74.9583 70.4167H66.7916C66.375 70.4167 66.1666 70.1667 66.1666 69.75Z" fill="#FF9A00"/>
</svg>
