<svg width="100" height="101" viewBox="0 0 100 101" fill="none" xmlns="http://www.w3.org/2000/svg">
<g clip-path="url(#clip0_287_1984)">
<path d="M93.2325 75.6666C93.9298 74.4589 94.3631 73.098 94.3631 71.876V29.4573C94.3631 28.2352 93.9304 26.8747 93.2328 25.6669L49.9315 50.6668L93.2325 75.6666Z" fill="#00599C"/>
<path d="M53.7793 99.7499L90.5152 78.5406C91.5734 77.9296 92.5352 76.8746 93.2325 75.6665L49.9315 50.6667L6.63049 75.6668C7.32775 76.8746 8.28985 77.9299 9.34779 78.5406L46.0837 99.7499C48.1998 100.972 51.6632 100.972 53.7793 99.7499Z" fill="#004482"/>
<path d="M93.2328 25.6665C92.5353 24.4585 91.5732 23.4034 90.5152 22.7924L53.7794 1.5832C51.6632 0.361184 48.1999 0.361184 46.0837 1.5832L9.34783 22.7924C7.23138 24.0142 5.5 27.0134 5.5 29.4572V71.8759C5.5 73.0979 5.93299 74.4588 6.63054 75.6665L49.9315 50.6667L93.2328 25.6665Z" fill="#659AD2"/>
<path d="M49.9316 80.2876C33.5985 80.2876 20.3105 66.9997 20.3105 50.6666C20.3105 34.3335 33.5985 21.0456 49.9316 21.0456C60.4708 21.0456 70.3001 26.7171 75.5831 35.8468L62.7639 43.2648C60.1198 38.6951 55.2024 35.8561 49.9316 35.8561C41.7649 35.8561 35.1211 42.4999 35.1211 50.6666C35.1211 58.833 41.7649 65.4771 49.9316 65.4771C55.203 65.4771 60.1203 62.6382 62.7647 58.0675L75.584 65.4853C70.301 74.6158 60.4714 80.2876 49.9316 80.2876Z" fill="white"/>
<path d="M79.5525 49.021H76.2611V45.7299H72.9703V49.021H69.6788V52.3122H72.9703V55.6036H76.2611V52.3122H79.5525V49.021Z" fill="white"/>
<path d="M91.8947 49.021H88.6032V45.7299H85.3124V49.021H82.021V52.3122H85.3124V55.6036H88.6032V52.3122H91.8947V49.021Z" fill="white"/>
</g>
<defs>
<clipPath id="clip0_287_1984">
<rect width="100" height="100" fill="white" transform="translate(0 0.666687)"/>
</clipPath>
</defs>
</svg>
