<svg width="100" height="101" viewBox="0 0 100 101" fill="none" xmlns="http://www.w3.org/2000/svg">
<g clip-path="url(#clip0_287_1961)">
<path d="M94.1749 0.333344L86.142 90.3229L50.0335 100.333L14.0245 90.337L6 0.333344H94.1749Z" fill="#264DE4"/>
<path d="M79.2648 84.5926L86.1295 7.69241H50.0874V92.6817L79.2648 84.5926Z" fill="#2965F1"/>
<path d="M24.3959 41.0737L25.3852 52.1121H50.0874V41.0737H24.3959Z" fill="#EBEBEB"/>
<path d="M50.0874 18.7312H50.0493H22.4079L23.4113 29.7699H50.0874V18.7312Z" fill="#EBEBEB"/>
<path d="M50.0875 81.2266V69.7418L50.0392 69.7547L37.7454 66.4351L36.9595 57.6313H30.9857H25.8785L27.425 74.9635L50.0367 81.2407L50.0875 81.2266Z" fill="#EBEBEB"/>
<path d="M63.6421 52.112L62.3608 66.4282L50.0493 69.7512V81.2354L72.679 74.9636L72.845 73.0987L75.439 44.0377L75.7083 41.0735L77.7011 18.7312H50.0493V29.7699H65.6038L64.5994 41.0735H50.0493V52.112H63.6421Z" fill="white"/>
</g>
<defs>
<clipPath id="clip0_287_1961">
<rect width="100" height="100" fill="white" transform="translate(0 0.333344)"/>
</clipPath>
</defs>
</svg>
