<svg width="100" height="100" viewBox="0 0 100 100" fill="none" xmlns="http://www.w3.org/2000/svg">
<g clip-path="url(#clip0_300_2074)">
<path d="M20.3893 79.5814L3.29049 62.4826C1.26331 60.3967 0 57.4588 0 54.5869C0 53.2575 0.749174 51.1789 1.31473 49.9817L17.0988 17.0989L20.3893 79.5814Z" fill="#01579B"/>
<path d="M78.9277 20.3893L61.8289 3.29055C60.3379 1.7922 57.2237 6.10352e-05 54.5942 6.10352e-05C52.332 6.10352e-05 50.1139 0.455441 48.6743 1.31479L17.1061 17.0989L78.9277 20.3893Z" fill="#40C4FF"/>
<path d="M40.7786 99.9704H82.2182V82.2106L51.3038 72.3464L23.0261 82.2106L40.7786 99.9704Z" fill="#40C4FF"/>
<path d="M17.1061 70.3781C17.1061 75.6517 17.7672 76.9517 20.3966 79.5885L23.0261 82.218H82.2182L53.2795 49.3351L17.1061 17.106V70.3781Z" fill="#29B6F6"/>
<path d="M69.7173 17.0989H17.0989L82.2109 82.2109H99.9707V41.4323L78.9277 20.3894C75.9751 17.422 73.3457 17.0989 69.7173 17.0989Z" fill="#01579B"/>
<path opacity="0.2" d="M21.0504 80.2425C18.4209 77.5983 17.7599 74.9983 17.7599 70.3784V17.7599L17.0989 17.0989V70.371C17.1062 74.9983 17.1062 76.2763 21.0504 80.2425Z" fill="white"/>
<path opacity="0.2" d="M99.3168 40.7787V81.5573H81.557L82.218 82.211H99.9779V41.4398L99.3168 40.7787Z" fill="#263238"/>
<path opacity="0.2" d="M78.9277 20.3894C75.6666 17.1283 72.993 17.0989 69.0635 17.0989H17.1061L17.7672 17.7599H69.0709C71.0246 17.7599 75.9824 17.4294 78.9277 20.3894Z" fill="white"/>
<path opacity="0.2" d="M99.3169 40.7786L78.9276 20.3893L61.8288 3.29055C60.3378 1.7922 57.2236 6.10352e-05 54.5941 6.10352e-05C52.3319 6.10352e-05 50.1138 0.455441 48.6742 1.31479L17.1061 17.0989L1.32199 49.9817C0.756437 51.1789 0.00726318 53.2575 0.00726318 54.5869C0.00726318 57.4588 1.27058 60.3967 3.29775 62.4826L19.0598 78.1271C19.4344 78.5899 19.8751 79.0599 20.4039 79.5814L21.0649 80.2424L23.0407 82.2182L40.1395 99.317L40.8005 99.978H81.5791H82.2401V82.2182H99.9999V82.1741V41.4397L99.3169 40.7786Z" fill="url(#paint0_radial_300_2074)"/>
</g>
<defs>
<radialGradient id="paint0_radial_300_2074" cx="0" cy="0" r="1" gradientUnits="userSpaceOnUse" gradientTransform="translate(49.9999 49.9864) scale(49.9927 49.9927)">
<stop stop-color="white" stop-opacity="0.1"/>
<stop offset="1" stop-color="white" stop-opacity="0"/>
</radialGradient>
<clipPath id="clip0_300_2074">
<rect width="100" height="100" fill="white"/>
</clipPath>
</defs>
</svg>
