<svg width="100" height="100" viewBox="0 0 100 100" fill="none" xmlns="http://www.w3.org/2000/svg">
<path fill-rule="evenodd" clip-rule="evenodd" d="M49.851 1C22.2847 1 0 23.449 0 51.2214C0 73.4214 14.2786 92.2133 34.0867 98.8643C36.5633 99.3643 37.4704 97.7837 37.4704 96.4541C37.4704 95.2898 37.3888 91.299 37.3888 87.1408C23.5214 90.1347 20.6337 81.1541 20.6337 81.1541C18.4051 75.3337 15.1031 73.8378 15.1031 73.8378C10.5643 70.7612 15.4337 70.7612 15.4337 70.7612C20.4684 71.0939 23.1102 75.9163 23.1102 75.9163C27.5663 83.5653 34.7469 81.4041 37.6357 80.0735C38.048 76.8306 39.3694 74.5857 40.7724 73.3388C29.7122 72.1745 18.0755 67.851 18.0755 48.5602C18.0755 43.0724 20.0551 38.5827 23.1918 35.0908C22.6969 33.8439 20.9633 28.6878 23.6878 21.7867C23.6878 21.7867 27.8969 20.4561 37.3878 26.9418C41.4511 25.8425 45.6416 25.2833 49.851 25.2786C54.0602 25.2786 58.351 25.8612 62.3133 26.9418C71.8051 20.4561 76.0143 21.7867 76.0143 21.7867C78.7388 28.6878 77.0041 33.8439 76.5092 35.0908C79.7286 38.5827 81.6265 43.0724 81.6265 48.5602C81.6265 67.851 69.9898 72.0908 58.8469 73.3388C60.6633 74.9184 62.2306 77.9112 62.2306 82.651C62.2306 89.3857 62.149 94.7908 62.149 96.4531C62.149 97.7837 63.0571 99.3643 65.5327 98.8653C85.3408 92.2122 99.6194 73.4214 99.6194 51.2214C99.701 23.449 77.3347 1 49.851 1Z" fill="white"/>
</svg>
