<svg width="100" height="100" viewBox="0 0 100 100" fill="none" xmlns="http://www.w3.org/2000/svg">
<g clip-path="url(#clip0_290_2036)">
<path fill-rule="evenodd" clip-rule="evenodd" d="M13.9204 54.123C14.0869 57.0371 17.0011 55.7049 18.3332 54.7891C19.5822 53.8732 19.9985 54.6225 20.0817 52.874C20.165 51.7084 20.2483 50.626 20.2483 49.4603C18.3332 49.2938 16.2517 49.7101 14.6697 50.8758C13.9204 51.4586 12.3384 53.3736 13.9204 54.123Z" fill="#F6D2A2"/>
<path d="M15.5024 56.2047C14.9196 56.2047 13.8372 55.9549 13.6706 54.2896C13.1711 53.9566 13.0045 53.5403 13.0045 53.2905C12.9213 52.2914 14.0037 51.1257 14.5865 50.7094C15.9187 49.7103 17.6672 49.2107 19.4989 49.2107H20.5813V49.4605C20.6646 50.3764 20.5813 51.2922 20.4981 52.1248C20.4981 52.3746 20.4981 52.6244 20.4148 52.8742C20.3315 54.1231 20.0818 54.2896 19.4989 54.5394C19.2491 54.6227 18.9994 54.706 18.5831 55.039C18.1667 55.2888 16.7513 56.2047 15.5024 56.2047ZM19.4989 49.7103C17.7504 49.7103 16.1685 50.2098 14.9196 51.1257C14.3367 51.542 13.5041 52.5411 13.5874 53.2072C13.5874 53.457 13.7539 53.7068 14.0869 53.8733L14.2535 53.9566V54.1231C14.3367 55.4553 15.0028 55.6218 15.5024 55.6218C16.335 55.6218 17.5007 55.039 18.25 54.5394C18.7496 54.2064 19.0826 54.1231 19.3324 54.0399C19.7487 53.8733 19.832 53.8733 19.9152 52.8742C19.9152 52.6244 19.9152 52.3746 19.9985 52.1248C20.0818 51.3755 20.0818 50.5429 20.0818 49.7935C19.832 49.7103 19.6655 49.7103 19.4989 49.7103Z" fill="black"/>
<path fill-rule="evenodd" clip-rule="evenodd" d="M13.9204 54.123C14.3367 53.9565 14.8363 53.8732 15.0861 53.4569L13.9204 54.123Z" fill="#C6B198"/>
<path d="M13.9204 54.3727C13.8371 54.3727 13.6706 54.2894 13.6706 54.2062C13.5873 54.0397 13.6706 53.8731 13.8371 53.8731C13.9204 53.8731 14.0037 53.7899 14.0037 53.7899C14.3367 53.6233 14.6697 53.5401 14.8363 53.2903C14.9195 53.207 15.086 53.1238 15.2526 53.207C15.3358 53.2903 15.4191 53.4568 15.3358 53.6233C15.0028 54.0396 14.5865 54.2062 14.2534 54.2894L14.0869 54.3727H13.9204Z" fill="black"/>
<path fill-rule="evenodd" clip-rule="evenodd" d="M20.7478 18.9035C9.42424 15.7395 17.8336 1.3353 26.9091 7.24686L20.7478 18.9035Z" fill="#6AD7E5"/>
<path d="M20.9143 19.2364L20.6646 19.1532C14.8363 17.4879 14.9195 13.3249 15.086 12.0759C15.5024 8.912 18.4998 5.58154 22.4963 5.58154C24.0783 5.58154 25.577 6.08111 27.0757 7.08025L27.3255 7.24677L20.9143 19.2364ZM22.4963 6.16437C18.7495 6.16437 16.0019 9.24504 15.5856 12.1592C15.1693 15.1566 17.0011 17.4879 20.5813 18.5703L26.4929 7.33003C25.2439 6.58068 23.9118 6.16437 22.4963 6.16437Z" fill="black"/>
<path fill-rule="evenodd" clip-rule="evenodd" d="M70.9545 6.16457C79.8634 -0.0800323 88.0231 14.0744 77.6154 17.6546L70.9545 6.16457Z" fill="#6AD7E5"/>
<path d="M77.5322 17.9875L70.6215 6.08114L70.8712 5.91462C72.4532 4.83222 74.0352 4.24939 75.6171 4.24939C79.4472 4.24939 82.1948 7.41332 82.7776 10.494C83.0274 11.7429 83.2772 15.9892 77.7819 17.821L77.5322 17.9875ZM71.3708 6.33092L77.7819 17.4047C81.0291 16.239 82.6944 13.7412 82.1948 10.7438C81.6952 7.91289 79.1141 4.99874 75.6171 4.99874C74.2017 4.91548 72.7863 5.33179 71.3708 6.33092Z" fill="black"/>
<path fill-rule="evenodd" clip-rule="evenodd" d="M72.9527 90.425C75.2008 91.8405 79.3638 96.0868 75.9501 98.1684C72.7029 101.166 70.8712 94.8379 67.957 94.0053C69.206 92.3401 70.7879 90.7581 72.9527 90.425Z" fill="#F6D2A2"/>
<path d="M74.2017 99.2508C72.8695 99.2508 71.7039 97.9186 70.7047 96.6697C69.7888 95.6705 68.873 94.5881 67.8738 94.2551L67.4575 94.1718L67.7073 93.8388C68.7064 92.4234 70.3717 90.5916 72.8695 90.1753H72.9528L73.036 90.2586C74.4515 91.1744 77.5321 93.7555 77.4489 96.1701C77.4489 97.086 76.9493 97.8353 76.0334 98.4182C75.4506 99.001 74.8678 99.2508 74.2017 99.2508ZM68.3734 93.8388C69.3725 94.2551 70.2051 95.3375 71.0378 96.2534C72.0369 97.5023 73.036 98.5847 74.1184 98.5847C74.618 98.5847 75.1176 98.3349 75.6171 97.8353H75.7004C76.4498 97.3358 76.8661 96.7529 76.8661 96.0036C76.8661 94.0886 74.4515 91.674 72.7863 90.5916C71.2875 91.0079 69.7888 92.007 68.3734 93.8388ZM75.9502 98.4182C75.8669 98.4182 75.7837 98.3349 75.7004 98.2516C75.5339 97.9186 75.3674 97.5023 75.2841 97.1693C75.0343 96.5032 74.7845 95.8371 74.285 95.3375C74.2017 95.2542 74.2017 95.0877 74.285 94.9212C74.3682 94.8379 74.5347 94.8379 74.7013 94.9212C75.2841 95.504 75.6171 96.2534 75.8669 97.0027L76.2832 98.0019C76.3665 98.1684 76.2832 98.3349 76.2 98.4182H75.9502Z" fill="black"/>
<path fill-rule="evenodd" clip-rule="evenodd" d="M32.3212 95.2542C29.6568 95.6706 28.1581 98.0851 25.91 99.3341C23.8285 100.583 22.9959 98.9177 22.8294 98.5847C22.4963 98.4182 22.4963 98.7512 21.9967 98.2517C20.0817 95.171 23.995 92.9229 26.0766 91.4242C28.9907 90.7581 30.8225 93.256 32.3212 95.2542Z" fill="#F6D2A2"/>
<path d="M24.4946 100C23.4122 100 22.8294 99.0842 22.6629 98.7511H22.5796C22.3298 98.7511 22.1633 98.6679 21.8302 98.3348V98.2516C19.9985 95.3374 23.1624 93.0893 25.244 91.5906L25.9933 91.0911H26.1598C26.4929 91.0078 26.7427 91.0078 27.0757 91.0078C29.5736 91.0078 31.1555 93.1726 32.4877 94.9211L32.904 95.5039L32.4044 95.5872C30.8225 95.837 29.6568 96.8361 28.4912 97.8352C27.7418 98.5013 26.9925 99.0842 26.1598 99.5837C25.4937 99.8335 24.9942 100 24.4946 100ZM22.6629 98.2516C22.7461 98.2516 22.8294 98.2516 22.9959 98.3348H23.0792L23.1624 98.4181C23.329 98.6679 23.7453 99.4172 24.5779 99.4172C24.9942 99.4172 25.4105 99.2507 25.8268 99.0009C26.6594 98.5846 27.4088 97.9185 28.0749 97.3357C29.1573 96.4198 30.3229 95.4207 31.8216 95.0044C30.5727 93.3391 29.074 91.5074 26.9925 91.5074C26.7427 91.5074 26.4929 91.5074 26.2431 91.5906L25.577 92.0902C23.4122 93.5889 20.7478 95.5039 22.3298 98.0018C22.4131 98.1683 22.4963 98.2516 22.6629 98.2516ZM22.8294 98.8344C22.6629 98.8344 22.4963 98.6679 22.5796 98.5013C22.6629 97.6687 23.0792 97.0859 23.4955 96.4198C23.7453 96.0868 23.9118 95.7537 24.0783 95.4207C24.1616 95.2541 24.3281 95.2541 24.4114 95.2541C24.5779 95.3374 24.5779 95.5039 24.5779 95.5872C24.4114 96.0035 24.1616 96.3365 23.9118 96.6696C23.4955 97.2524 23.1624 97.752 23.0792 98.4181C23.0792 98.7511 22.9959 98.8344 22.8294 98.8344Z" fill="black"/>
<path fill-rule="evenodd" clip-rule="evenodd" d="M21.2474 14.9901C19.7487 14.2407 18.6663 13.1583 19.5822 11.4098C20.4148 9.82785 21.9968 9.99438 23.4955 10.7437L21.2474 14.9901ZM75.2841 13.4914C76.7828 12.742 77.8652 11.6596 76.9493 9.91112C76.1167 8.32915 74.5347 8.49567 73.036 9.24503L75.2841 13.4914Z" fill="black"/>
<path fill-rule="evenodd" clip-rule="evenodd" d="M85.5252 53.7068C85.3587 56.621 82.4445 55.2888 81.1123 54.3729C79.8634 53.457 79.4471 54.2064 79.3638 52.4579C79.2806 51.2922 79.1973 50.2098 79.1973 49.0442C81.1123 48.8777 83.1939 49.294 84.7758 50.4596C85.6085 51.1257 87.1072 52.9575 85.5252 53.7068Z" fill="#F6D2A2"/>
<path d="M84.0265 55.7882C82.7776 55.7882 81.3622 54.8723 80.9458 54.6226C80.5295 54.3728 80.2798 54.2062 80.03 54.123C79.3639 53.8732 79.1974 53.7067 79.1141 52.4578C79.1141 52.208 79.1141 51.9582 79.0308 51.7084C78.9476 50.8758 78.8643 49.9599 78.9476 49.044V48.7943H80.03C81.8617 48.7943 83.6102 49.2938 84.9424 50.293C85.5252 50.7093 86.6076 51.8749 86.5244 52.8741C86.5244 53.2071 86.3578 53.6234 85.8583 53.8732C85.6918 55.5384 84.6094 55.7882 84.0265 55.7882ZM79.4471 49.3771C79.4471 50.1264 79.4471 50.9591 79.5304 51.7084C79.5304 51.9582 79.5304 52.208 79.6137 52.4578C79.6969 53.4569 79.7802 53.4569 80.1965 53.6234C80.4463 53.7067 80.7793 53.8732 81.2789 54.123C82.0282 54.6225 83.1939 55.2054 84.0265 55.2054C84.5261 55.2054 85.1922 55.0389 85.2754 53.7067V53.5402L85.442 53.4569C85.775 53.2904 85.9415 53.1238 85.9415 52.7908C86.0248 52.1247 85.1922 51.1256 84.6094 50.7093C83.3604 49.7934 81.6952 49.2938 80.03 49.2938C79.8635 49.3771 79.6969 49.3771 79.4471 49.3771Z" fill="black"/>
<path fill-rule="evenodd" clip-rule="evenodd" d="M85.5252 53.7069C85.1089 53.5403 84.6093 53.4571 84.3595 53.0408L85.5252 53.7069Z" fill="#C6B198"/>
<path d="M85.5252 54.0398H85.4419L85.2754 53.9565C84.8591 53.79 84.4428 53.7068 84.193 53.2905C84.1097 53.2072 84.1097 52.9574 84.2763 52.8741C84.3595 52.7909 84.6093 52.7909 84.6926 52.9574C84.8591 53.2072 85.1921 53.2905 85.5252 53.457C85.6084 53.457 85.6917 53.5402 85.6917 53.5402C85.8582 53.6235 85.9415 53.79 85.8582 53.8733C85.775 53.9565 85.6084 54.0398 85.5252 54.0398Z" fill="black"/>
<path fill-rule="evenodd" clip-rule="evenodd" d="M48.6404 0.253052C59.9639 0.253052 70.5381 1.83502 76.1166 12.7423C81.1123 24.8984 79.2806 38.0537 80.1132 50.9593C80.7793 62.033 82.1947 74.772 77.1158 85.0132C71.7038 95.7539 58.2154 98.5015 47.1417 98.0852C38.3992 97.7522 27.9083 94.9213 22.9126 86.9282C17.1676 77.6029 19.8319 63.6982 20.2482 53.2906C20.7478 40.9679 16.9178 28.5619 20.9976 16.5723C25.0774 3.99982 36.401 1.16893 48.6404 0.253052Z" fill="#6AD7E5"/>
<path d="M49.0567 98.4181H46.9752C43.5614 98.3348 38.3992 97.752 33.3203 95.6704C28.4079 93.6722 24.8276 90.8413 22.4963 87.0945C17.8337 79.5177 18.6663 69.11 19.4156 59.868C19.5822 57.5367 19.7487 55.3719 19.8319 53.2904C19.9985 48.9608 19.6654 44.4647 19.2491 40.2183C18.583 32.3918 17.9169 24.3154 20.498 16.4888C22.4963 10.6605 26.0765 6.49746 31.4885 3.8331C35.7349 1.75156 40.9803 0.585901 48.4739 0.00307071C59.6309 -0.0801907 70.7047 1.50178 76.2832 12.5755C79.9467 21.4845 79.9467 31.0596 80.0299 40.3016C80.0299 43.7986 80.0299 47.3788 80.2797 50.8758C80.363 51.9582 80.4462 53.0406 80.4462 54.123C81.1123 64.2809 81.8617 75.771 77.1991 85.0962C74.8677 89.8421 70.7879 93.3391 65.2094 95.5872C60.7133 97.4189 55.0515 98.4181 49.0567 98.4181ZM48.6404 0.502639C36.9005 1.41851 25.4105 3.99962 21.1641 16.6554C18.583 24.3987 19.2491 32.3918 19.9152 40.1351C20.2482 44.4647 20.6646 48.8775 20.498 53.2904C20.4148 55.3719 20.2482 57.5367 20.0817 59.868C19.3324 69.0268 18.4998 79.3512 23.0791 86.7615C24.9941 89.8421 31.1555 97.1691 47.0584 97.752H49.14C67.5407 97.752 74.3682 89.5923 76.866 84.7632C81.4454 75.6044 80.696 64.1144 80.1132 54.0397C80.0299 52.9573 79.9467 51.8749 79.9467 50.7925C79.7802 47.2956 79.6969 43.7153 79.6969 40.2183C79.6136 31.0596 79.6136 21.4845 76.0334 12.6588C73.5355 7.74638 69.7888 4.41593 64.6266 2.50091C59.2979 0.752423 53.303 0.502639 48.6404 0.502639Z" fill="black"/>
<path fill-rule="evenodd" clip-rule="evenodd" d="M50.6386 15.4064C52.6369 27.2295 71.9535 24.0656 69.2059 12.1592C66.7081 1.50174 49.9725 4.49915 50.6386 15.4064Z" fill="white"/>
<path d="M59.7974 23.1497C56.0506 23.1497 51.3047 21.1515 50.3056 15.4897C50.1391 12.8253 50.9717 10.4107 52.7202 8.57898C54.6352 6.49745 57.5493 5.33179 60.5467 5.33179C64.0437 5.33179 68.2068 7.16354 69.3724 12.2425C70.0385 15.0734 69.539 17.5712 67.957 19.5695C66.2085 21.7343 63.1278 23.1497 59.7974 23.1497ZM50.8884 15.4064C51.3047 17.7377 52.3871 19.5695 54.1356 20.9017C55.6343 22.0673 57.7159 22.6502 59.7974 22.6502C62.8781 22.6502 65.8755 21.318 67.5407 19.2364C69.0394 17.4047 69.4557 14.9901 68.8729 12.3257C67.7905 7.57985 63.8772 5.91462 60.5467 5.91462C57.7159 5.91462 54.9682 7.08028 53.1365 8.99529C51.5545 10.6605 50.7219 12.9086 50.8884 15.4064Z" fill="black"/>
<path fill-rule="evenodd" clip-rule="evenodd" d="M27.5752 17.3215C30.2396 27.5626 46.6421 24.9815 46.0593 14.6571C45.3099 2.33441 24.9941 4.66573 27.5752 17.3215Z" fill="white"/>
<path d="M36.3177 24.1489C32.7375 24.1489 28.5744 22.4005 27.2422 17.4048C26.6594 14.4906 27.2422 11.8263 28.9074 9.82798C30.7392 7.57992 33.7366 6.24774 36.9838 6.24774C41.3134 6.24774 45.8928 8.82885 46.2258 14.6571C46.3923 17.0717 45.643 19.2365 43.9778 20.985C42.2293 22.9 39.3151 24.1489 36.3177 24.1489ZM36.9838 6.83057C33.9031 6.83057 31.0722 8.07949 29.3238 10.161C27.7418 12.076 27.2422 14.4906 27.825 17.2382C28.9907 21.9009 32.9873 23.5661 36.3177 23.5661C39.1486 23.5661 41.8962 22.4837 43.6447 20.5687C45.1434 18.9867 45.8928 16.9052 45.7263 14.6571C45.5597 11.0769 43.1451 6.83057 36.9838 6.83057Z" fill="black"/>
<path fill-rule="evenodd" clip-rule="evenodd" d="M52.97 29.5609C52.97 31.0596 53.303 32.808 53.0532 34.4733C52.6369 35.2226 51.8876 35.3059 51.2215 35.5557C50.3056 35.3892 49.5562 34.8063 49.1399 33.9737C48.8901 32.142 49.2232 30.3102 49.3065 28.4785L52.97 29.5609Z" fill="white"/>
<path d="M51.2215 35.8887C50.1391 35.7222 49.3065 35.0561 48.8902 34.1402C48.7237 32.808 48.8069 31.5591 48.8902 30.3102C48.9735 29.7273 48.9735 29.1445 48.9735 28.5617V28.2286L53.2198 29.5608V29.7273C53.2198 30.2269 53.3031 30.7265 53.3031 31.3093C53.3863 32.3917 53.4696 33.5574 53.3031 34.6398V34.723C52.97 35.3891 52.3872 35.5556 51.8044 35.8054C51.6378 35.7222 51.4713 35.8054 51.2215 35.8887ZM49.3898 33.8904C49.7228 34.6398 50.3889 35.1393 51.1383 35.3059C51.3048 35.2226 51.4713 35.2226 51.5546 35.1393C52.0541 34.9728 52.4704 34.8063 52.7202 34.39C52.8868 33.3908 52.8035 32.3084 52.7202 31.2261C52.7202 30.7265 52.637 30.2269 52.637 29.8106L49.473 28.8115C49.473 29.311 49.3898 29.8106 49.3898 30.2269C49.3065 31.5591 49.2233 32.7248 49.3898 33.8904Z" fill="black"/>
<path fill-rule="evenodd" clip-rule="evenodd" d="M34.9022 15.6564C34.9022 17.3216 33.6533 18.6538 32.1546 18.6538C30.6559 18.6538 29.407 17.3216 29.407 15.6564C29.407 13.9912 30.6559 12.659 32.1546 12.659C33.6533 12.659 34.9022 13.9912 34.9022 15.6564Z" fill="black"/>
<path fill-rule="evenodd" clip-rule="evenodd" d="M33.9863 16.3224C33.9863 16.7387 33.6533 17.0718 33.3202 17.0718C32.9872 17.0718 32.6541 16.7387 32.6541 16.3224C32.6541 15.9061 32.9872 15.5731 33.3202 15.5731C33.7365 15.5731 33.9863 15.9061 33.9863 16.3224Z" fill="white"/>
<path fill-rule="evenodd" clip-rule="evenodd" d="M58.1322 14.907C58.1322 16.5722 56.8832 17.9044 55.3845 17.9044C53.8858 17.9044 52.6369 16.5722 52.6369 14.907C52.6369 13.2418 53.8858 11.9096 55.3845 11.9096C56.8832 11.9096 58.1322 13.2418 58.1322 14.907Z" fill="black"/>
<path fill-rule="evenodd" clip-rule="evenodd" d="M57.2996 15.573C57.2996 15.9893 57.0498 16.3224 56.6335 16.3224C56.3004 16.3224 55.9674 15.9893 55.9674 15.573C55.9674 15.1567 56.2172 14.8237 56.6335 14.8237C56.9665 14.8237 57.2996 15.1567 57.2996 15.573ZM44.9769 29.3944C43.728 32.3086 45.643 38.2201 48.9734 33.8905C48.7237 32.0588 49.0567 30.227 49.14 28.3953L44.9769 29.3944Z" fill="white"/>
<path d="M46.7254 35.7222C46.1426 35.7222 45.5597 35.3891 45.1434 34.7231C44.2275 33.3909 44.061 30.893 44.7271 29.3111L44.8104 29.1445L49.3898 27.9789V28.3119L49.3065 30.1437C49.2232 31.3926 49.14 32.5583 49.3065 33.8072V33.8904L49.2232 33.9737C48.3906 35.1394 47.558 35.7222 46.7254 35.7222ZM45.2267 29.6441C44.7271 31.0596 44.8936 33.3076 45.643 34.39C45.976 34.8896 46.3091 35.1394 46.7254 35.1394C47.3082 35.1394 47.9743 34.6398 48.6404 33.8072C48.4739 32.5583 48.5571 31.3093 48.7237 30.1437L48.8069 28.7282L45.2267 29.6441Z" fill="black"/>
<path fill-rule="evenodd" clip-rule="evenodd" d="M45.3932 23.7328C43.1451 23.8993 41.3134 26.6469 42.479 28.7285C44.061 31.5593 47.4747 28.4787 49.6395 28.7285C52.1374 28.8117 54.1356 31.3928 56.1339 29.228C58.382 26.8134 55.1348 24.4821 52.7202 23.3997L45.3932 23.7328Z" fill="#F6D2A2"/>
<path d="M54.3854 30.3936C53.6361 30.3936 52.8867 30.0606 52.1374 29.7276C51.388 29.3945 50.5554 29.0615 49.6395 29.0615H49.3897C48.7236 29.0615 47.9743 29.3112 47.1417 29.6443C46.2258 29.9773 45.3099 30.2271 44.4773 30.2271C43.4782 30.2271 42.7288 29.8108 42.2293 28.8949C41.6464 27.8958 41.7297 26.7301 42.3125 25.6477C42.9786 24.3988 44.1443 23.6495 45.3932 23.4829L52.8035 23.1499H52.8867C54.7185 23.8993 56.8 25.3147 57.2163 26.9799C57.3828 27.8125 57.133 28.6452 56.467 29.3945C55.8009 30.1439 55.1348 30.3936 54.3854 30.3936ZM49.7228 28.5619C50.6387 28.5619 51.5545 28.9782 52.3872 29.3112C53.1365 29.6443 53.8026 29.8941 54.4687 29.8941C55.0515 29.8941 55.5511 29.6443 56.0506 29.1447C56.6335 28.5619 56.8 27.8958 56.7167 27.2297C56.3837 25.8143 54.3854 24.4821 52.8035 23.816L45.5597 24.149C44.4773 24.2323 43.4782 24.9817 42.8954 25.9808C42.3958 26.8967 42.3958 27.8958 42.8121 28.7284C43.2284 29.4778 43.728 29.8108 44.5606 29.8108C45.3099 29.8108 46.1425 29.4778 46.9752 29.228C47.891 28.8949 48.6404 28.6452 49.473 28.6452C49.473 28.4786 49.5563 28.4786 49.7228 28.5619Z" fill="#231F20"/>
<path fill-rule="evenodd" clip-rule="evenodd" d="M45.1434 23.6495C44.9769 19.7362 52.4704 19.2366 53.303 22.4838C54.2189 25.8143 45.4765 26.5636 45.1434 23.6495Z" fill="black"/>
</g>
<defs>
<clipPath id="clip0_290_2036">
<rect width="100" height="100" fill="white"/>
</clipPath>
</defs>
</svg>
