<svg width="100" height="100" viewBox="0 0 100 100" fill="none" xmlns="http://www.w3.org/2000/svg">
<g clip-path="url(#clip0_287_1865)">
<path d="M94.9736 -8.01086e-05H5.49994L13.3947 89.4736L50.2368 99.9999L87.0789 89.4736L94.9736 -8.01086e-05Z" fill="#E65100"/>
<path d="M50.2368 7.89466V91.8448L79.705 83.4155L86.2839 7.89466H50.2368Z" fill="#FF6D00"/>
<path d="M50.2368 52.6316V42.1053H72.8656L71.029 72.3684L50.2368 79.2078V68.1607L61.0235 64.4737L61.8184 52.6316H50.2368ZM73.6606 31.579L74.4418 21.0527H50.2368V31.579H73.6606Z" fill="white"/>
<path d="M50.2367 68.1607V79.2078L29.4445 72.3684L28.3892 57.8948H38.9155L39.45 64.4737L50.2367 68.1607ZM37.3393 31.579H50.2367V21.0527H26.2921L28.1287 52.6316H50.2367V42.1053H38.1342L37.3393 31.579Z" fill="#EEEEEE"/>
</g>
<defs>
<clipPath id="clip0_287_1865">
<rect width="100" height="100" fill="white"/>
</clipPath>
</defs>
</svg>
