<svg width="100" height="101" viewBox="0 0 100 101" fill="none" xmlns="http://www.w3.org/2000/svg">
<g clip-path="url(#clip0_290_2015)">
<path d="M36.3187 77.9792C36.3187 77.9792 32.475 80.3167 38.9906 80.9854C46.8344 81.9854 51.0125 81.8198 59.6937 80.1511C61.4385 81.2195 63.2838 82.1144 65.2031 82.8229C45.6719 91.1729 20.9562 82.3229 36.3187 77.9792ZM33.8187 67.1261C33.8187 67.1261 29.6437 70.2979 36.1562 70.9698C44.6719 71.8042 51.35 71.9698 62.875 69.6354C63.9958 70.7722 65.3682 71.6296 66.8812 72.1386C43.3375 79.1511 16.9562 72.8042 33.8187 67.1261ZM79.9031 86.1573C79.9031 86.1573 82.7406 88.4948 76.7312 90.3323C65.5437 93.6761 29.8125 94.6761 19.7937 90.3323C16.2875 88.8323 22.9656 86.6604 25.1062 86.326C27.2781 85.826 28.45 85.8261 28.45 85.8261C24.6062 83.1542 2.90312 91.3354 17.4312 93.6698C57.3375 100.182 90.2312 90.8323 79.8781 86.1573H79.9031ZM38.125 55.7698C38.125 55.7698 19.925 60.1136 31.6125 61.6136C36.6219 62.2823 46.4719 62.1136 55.6562 61.4479C63.1687 60.7792 70.6875 59.4479 70.6875 59.4479C70.6875 59.4479 68.0156 60.6167 66.1781 61.7854C47.6469 66.6292 12.0781 64.4573 22.2656 59.4479C30.9469 55.2729 38.1281 55.7761 38.1281 55.7761L38.125 55.7698ZM70.6875 73.9698C89.3875 64.2823 80.7062 54.9385 74.6937 56.1042C73.1937 56.4385 72.5219 56.7729 72.5219 56.7729C72.5219 56.7729 73.0219 55.7729 74.1906 55.4386C86.0469 51.2636 95.3969 67.9604 70.3469 74.4698C70.3469 74.4698 70.5125 74.3042 70.6812 73.9698H70.6875ZM39.9687 100.351C58 101.52 85.5531 99.6823 86.2187 91.1636C86.2187 91.1636 84.8844 94.5073 71.3594 97.0073C55.9969 99.8448 36.9625 99.5073 25.775 97.6761C25.775 97.6761 28.1125 99.6792 39.9687 100.351Z" fill="#4E7896"/>
<path d="M59.3626 0.669617C59.3626 0.669617 69.7157 11.1884 49.5126 27.0509C33.3157 39.9071 45.8407 47.254 49.5126 55.604C39.9939 47.0884 33.1501 39.5727 37.8251 32.5634C44.6689 22.2071 63.5376 17.229 59.3626 0.669617ZM54.0501 48.5915C58.8939 54.1009 52.7157 59.1102 52.7157 59.1102C52.7157 59.1102 65.072 52.7665 59.3939 44.9165C54.2189 37.404 50.2064 33.729 71.9157 21.2071C71.9157 21.2071 37.6876 29.7227 54.0501 48.5915Z" fill="#F58219"/>
</g>
<defs>
<clipPath id="clip0_290_2015">
<rect width="100" height="100" fill="white" transform="translate(0 0.666687)"/>
</clipPath>
</defs>
</svg>
