<svg width="100" height="101" viewBox="0 0 100 101" fill="none" xmlns="http://www.w3.org/2000/svg">
<path d="M0 71.37H3.29443V58.3652L8.39453 69.7065C8.99609 71.0737 9.82031 71.5649 11.4355 71.5649C13.0508 71.5649 13.8428 71.079 14.4453 69.7065L19.5459 58.3652V71.3749H22.8408V58.3866C22.8408 57.1196 22.333 56.5068 21.2881 56.1904C18.7856 55.4091 17.1064 56.0849 16.3467 57.7743L11.3418 68.9672L6.49414 57.7695C5.76562 56.08 4.05518 55.4042 1.55273 56.1855C0.506836 56.5024 0 57.1152 0 58.3818V71.37ZM25.5791 60.7812H28.8726V67.9491C28.8418 68.3388 28.9976 69.2529 30.8022 69.2807C31.7231 69.2953 37.9087 69.2807 37.9663 69.2807V60.7455H41.2671C41.2817 60.7455 41.2637 72.3832 41.2642 72.433C41.2822 75.3031 37.7026 75.9267 36.0532 75.975H25.6509V73.7582L36.0718 73.7577C38.1919 73.5331 37.9419 72.4799 37.9419 72.1249V71.2607H30.9399C27.6821 71.2314 25.6079 69.809 25.582 68.1733C25.5796 68.0268 25.6523 60.8515 25.5801 60.7807L25.5791 60.7812Z" fill="#00618A"/>
<path d="M43.8066 71.37H53.2783C54.3867 71.37 55.4644 71.1381 56.3203 70.7362C57.7461 70.0819 58.4429 69.1947 58.4429 68.0331V65.6259C58.4429 64.6752 57.6509 63.7885 56.0991 63.1971C55.2754 62.8798 54.2617 62.7113 53.2798 62.7113H49.2881C47.958 62.7113 47.3242 62.3099 47.166 61.4232C47.1343 61.3177 47.1343 61.2279 47.1343 61.1273V59.6283C47.1343 59.5438 47.1343 59.4589 47.166 59.3534C47.3242 58.6776 47.6728 58.4872 48.8447 58.3768C48.9399 58.3768 49.0664 58.3553 49.1621 58.3553H58.5703V56.1595H49.3203C47.9897 56.1595 47.293 56.244 46.6592 56.434C44.6934 57.0468 43.8379 58.0233 43.8379 59.7128V61.6346C43.8379 63.1132 45.5176 64.3802 48.3359 64.6757C48.6533 64.6967 48.9697 64.7177 49.2861 64.7177H52.7075C52.8345 64.7177 52.9614 64.7177 53.0561 64.7391C54.1011 64.8236 54.5454 65.0136 54.8618 65.3934C55.0571 65.5887 55.1157 65.7743 55.1157 65.9794V67.9012C55.1157 68.1337 54.9575 68.4296 54.6406 68.6825C54.3555 68.9364 53.8804 69.1049 53.2466 69.1473C53.1196 69.1473 53.0249 69.1683 52.8984 69.1683H43.8066V71.3646V71.37ZM78.9941 67.5477C78.9941 69.8075 80.6729 71.0746 84.0625 71.328C84.3787 71.3525 84.6956 71.3665 85.0127 71.37H93.5977V69.1737H84.9492C83.0171 69.1737 82.2881 68.6879 82.2881 67.5262V56.1639H78.9937V67.5468L78.9941 67.5477ZM60.5444 67.662V59.8324C60.5444 57.8431 61.9409 56.6366 64.7026 56.2557C64.9972 56.2137 65.2943 56.1925 65.5918 56.1923H71.8452C72.1533 56.1925 72.4609 56.2137 72.7661 56.2557C75.5278 56.6366 76.9243 57.8427 76.9243 59.8324V67.662C76.9243 69.2758 76.3311 70.1395 74.9639 70.7025L78.209 73.6322H74.3838L71.7583 71.2621L69.1152 71.4296H65.5918C64.9888 71.4296 64.354 71.3446 63.6553 71.1542C61.5557 70.5829 60.5444 69.4823 60.5444 67.662ZM64.1006 67.4667C64.1006 67.5726 64.1323 67.6781 64.1641 67.8055C64.3594 68.7157 65.2114 69.2235 66.5078 69.2235H69.501L66.7519 66.7416H70.5772L72.9697 68.9061C73.4116 68.6708 73.7021 68.3104 73.7998 67.848C73.8315 67.7426 73.8315 67.6366 73.8315 67.5306V60.0233C73.8315 59.9388 73.8315 59.828 73.7998 59.7269C73.6045 58.8807 72.7519 58.3939 71.4824 58.3939H66.5137C65.0488 58.3939 64.1016 59.0287 64.1016 60.0233V67.4725L64.1006 67.4667Z" fill="#E48E00"/>
<path d="M96.4961 52.5203C94.4712 52.4656 92.9239 52.6536 91.6016 53.2112C91.2256 53.3699 90.6265 53.3738 90.565 53.845C90.7715 54.0613 90.8042 54.3846 90.9678 54.6507C91.2837 55.1619 91.8174 55.847 92.2925 56.2054C92.8121 56.5975 93.3472 57.0174 93.9053 57.3577C94.8965 57.9622 96.003 58.3074 96.9571 58.9124C97.5196 59.2689 98.0782 59.7181 98.627 60.1214C98.898 60.3206 99.0811 60.6302 99.4327 60.7547V60.6971C99.2471 60.4612 99.1998 60.137 99.0298 59.8914L98.2813 59.1429C97.5489 58.1663 96.6202 57.3182 95.6324 56.6087C94.8448 56.0433 93.0816 55.2796 92.753 54.3626L92.6954 54.305C93.2539 54.2415 93.9078 54.0399 94.4239 53.9022C95.2896 53.6702 96.0635 53.7298 96.9581 53.4993L98.1675 53.1536V52.9232C97.7154 52.4593 97.3931 51.8455 96.9004 51.4261C95.6114 50.3275 94.2037 49.2313 92.7549 48.3157C91.9512 47.8079 90.9581 47.4788 90.106 47.0486C89.8194 46.9041 89.316 46.8289 89.127 46.5877C88.6797 46.0174 88.4361 45.2938 88.0909 44.6346C87.3682 43.243 86.6582 41.7225 86.0176 40.2581C85.5806 39.2596 85.295 38.2747 84.751 37.3787C82.1363 33.0799 79.3213 30.4852 74.962 27.9354C74.0342 27.3934 72.9175 27.1785 71.7369 26.8987L69.8365 26.7835C69.4497 26.6224 69.0474 26.1487 68.6841 25.9193C67.2398 25.0062 63.5352 23.0223 62.4654 25.6263C61.7901 27.2733 63.4747 28.8802 64.0777 29.7151C64.5005 30.3011 65.0425 30.9568 65.3443 31.6155C65.543 32.0482 65.5777 32.4822 65.7476 32.9402C66.1661 34.0633 66.5303 35.2952 67.0718 36.3377C67.3453 36.8651 67.647 37.4207 67.9932 37.8924C68.2056 38.1819 68.5694 38.3094 68.6265 38.7567C68.271 39.2547 68.2505 40.0262 68.0503 40.657C67.1504 43.4949 67.4898 47.0218 68.7989 49.1224C69.2007 49.7669 70.1465 51.1497 71.4478 50.6194C72.5855 50.1556 72.3267 48.72 72.6573 47.4525C72.7305 47.1644 72.6856 46.9544 72.8301 46.7615V46.8192L73.8667 48.8919C74.6333 50.1273 75.9957 51.4188 77.149 52.2903C77.7471 52.742 78.2232 53.5233 78.9917 53.7874V53.7298H78.9341C78.7842 53.4954 78.5499 53.3992 78.358 53.2122C77.9073 52.7703 77.4058 52.221 77.0333 51.7152C75.9834 50.2903 75.0567 48.7318 74.212 47.1082C73.8086 46.3333 73.4576 45.4783 73.1182 44.6898C72.9874 44.3856 72.9888 43.9261 72.7154 43.7684C72.3428 44.3465 71.794 44.8133 71.5059 45.4959C71.045 46.5867 70.9854 47.9168 70.815 49.2967C70.7139 49.3328 70.7588 49.3079 70.6998 49.3543C69.898 49.1609 69.6158 48.3353 69.3179 47.6268C68.564 45.8348 68.4244 42.951 69.0874 40.8895C69.2583 40.3563 70.0347 38.6756 69.7207 38.1829C69.5708 37.6912 69.0762 37.4017 68.7994 37.0306C68.4576 36.5667 68.1148 35.9544 67.878 35.4183C67.2608 34.0218 66.9727 32.4544 66.3233 31.0418C66.0127 30.367 65.4883 29.6844 65.0567 29.0887C64.5791 28.4246 64.0445 27.9344 63.6749 27.1356C63.543 26.8499 63.3643 26.3934 63.5596 26.0989C63.5783 26.0143 63.6207 25.9368 63.682 25.8756C63.7432 25.8143 63.8207 25.7719 63.9053 25.7532C64.2393 25.4959 65.17 25.8387 65.5176 25.9837C66.4405 26.3675 67.212 26.7327 67.9942 27.2508C68.3702 27.4949 68.7496 27.9813 69.2032 28.1151H69.7207C70.5313 28.3016 71.4395 28.1736 72.1963 28.4031C73.5352 28.8099 74.7344 29.4432 75.8243 30.1307C79.1436 32.2264 81.857 35.2098 83.7134 38.7733C84.0123 39.346 84.1412 39.8934 84.4043 40.5008C84.9351 41.7215 85.6036 42.9876 86.1319 44.1859C86.6592 45.3821 87.1719 46.5882 87.917 47.5833C88.3086 48.1058 89.8213 48.387 90.5083 48.6771C90.9903 48.8807 91.7793 49.0931 92.2359 49.368C93.1075 49.8939 93.9522 50.5203 94.7701 51.0965C95.1788 51.3846 96.4351 52.0159 96.4976 52.5359L96.4961 52.5203Z" fill="#00618A"/>
<path fill-rule="evenodd" clip-rule="evenodd" d="M70.7569 30.5809C70.3345 30.5731 70.0362 30.6268 69.7203 30.6961V30.7537H69.7779C69.9791 31.1678 70.3345 31.4339 70.5836 31.7903L71.1597 32.9993L71.2173 32.9417C71.5738 32.6902 71.7374 32.2884 71.7349 31.6746C71.5919 31.5242 71.5709 31.3358 71.4468 31.1561C71.2823 30.9168 70.9586 30.7811 70.7559 30.5799L70.7569 30.5809Z" fill="#00618A"/>
<path fill-rule="evenodd" clip-rule="evenodd" d="M95.144 69.1112C95.144 70.5614 96.29 71.5389 97.5718 71.5389C98.8535 71.5389 99.9995 70.5614 99.9995 69.1112C99.9995 67.661 98.8535 66.6835 97.5718 66.6835C96.29 66.6835 95.144 67.661 95.144 69.1112ZM99.4556 69.1112C99.4556 70.2118 98.6143 71.0341 97.5708 71.0341C96.5161 71.0341 95.686 70.2118 95.686 69.1112C95.686 68.0106 96.5151 67.1884 97.5708 67.1884C98.6133 67.1884 99.4556 68.0106 99.4556 69.1112ZM98.2251 70.4969H98.7686L97.9727 69.2802C98.3999 69.2347 98.7231 69.0272 98.7231 68.5223C98.7231 67.9589 98.3667 67.7264 97.6812 67.7264H96.5996V70.4974H97.0659V69.2997H97.4995L98.2246 70.4974L98.2251 70.4969ZM97.0659 68.91V68.1141H97.603C97.8814 68.1141 98.2183 68.1659 98.2183 68.4901C98.2183 68.8783 97.9141 68.911 97.564 68.911H97.0659V68.91Z" fill="#E48E00"/>
</svg>
