<svg width="100" height="101" viewBox="0 0 100 101" fill="none" xmlns="http://www.w3.org/2000/svg">
<g clip-path="url(#clip0_308_2316)">
<path d="M99.5911 57.0155C103.09 29.6205 83.7439 4.57498 56.3988 1.07561C29.0538 -2.42376 3.90831 16.9228 0.408938 44.2678C-3.09043 71.6129 16.2561 96.7084 43.6012 100.258C70.9962 103.757 96.0417 84.4106 99.5911 57.0155Z" fill="#FF6C37"/>
<path d="M68.0468 32.7699L46.9506 53.8661L41.0016 47.9172C61.7479 27.1709 63.7975 28.9706 68.0468 32.7699Z" fill="white"/>
<path d="M46.9506 54.366C46.8006 54.366 46.7006 54.316 46.6006 54.216L40.6017 48.2671C40.4017 48.0671 40.4017 47.7672 40.6017 47.5672C61.6979 26.471 63.8975 28.4707 68.3467 32.47C68.4467 32.5699 68.4967 32.6699 68.4967 32.8199C68.4967 32.9699 68.4467 33.0699 68.3467 33.1698L47.2505 54.216C47.2005 54.316 47.0505 54.366 46.9506 54.366ZM41.7015 47.9172L46.9506 53.1662L67.2969 32.8199C63.5976 29.5205 61.098 28.5207 41.7015 47.9172Z" fill="#FF6C37"/>
<path d="M52.9995 59.915L47.2505 54.166L68.3467 33.0698C73.9957 38.7688 65.5472 48.0171 52.9995 59.915Z" fill="white"/>
<path d="M52.9995 60.4149C52.8495 60.4149 52.7495 60.3649 52.6495 60.2649L46.9006 54.516C46.8006 54.416 46.8006 54.316 46.8006 54.166C46.8006 54.0161 46.8506 53.9161 46.9506 53.8161L68.0468 32.7199C68.2467 32.5199 68.5467 32.5199 68.7466 32.7199C70.0464 33.9197 70.7463 35.6194 70.6963 37.3691C70.5963 42.9181 64.2974 49.9668 53.3994 60.2649C53.2494 60.3649 53.0995 60.4149 52.9995 60.4149ZM47.9504 54.166C51.1498 57.4155 52.4996 58.7152 52.9995 59.2151C61.398 51.2166 69.5465 43.018 69.5965 37.3691C69.6465 36.0693 69.1466 34.7695 68.2967 33.7697L47.9504 54.166Z" fill="#FF6C37"/>
<path d="M41.1016 48.0671L45.3509 52.3164C45.4508 52.4164 45.4508 52.5163 45.3509 52.6163C45.3009 52.6663 45.3009 52.6663 45.2509 52.6663L36.4525 54.566C36.0025 54.616 35.6026 54.316 35.5026 53.8661C35.4526 53.6161 35.5526 53.3662 35.7026 53.2162L40.8017 48.1171C40.9017 48.0172 41.0516 47.9672 41.1016 48.0671Z" fill="white"/>
<path d="M36.3025 55.0659C35.5526 55.0659 35.0027 54.466 35.0027 53.7161C35.0027 53.3662 35.1527 53.0163 35.4026 52.7663L40.5017 47.6672C40.8016 47.4173 41.2016 47.4173 41.5015 47.6672L45.7507 51.9165C46.0507 52.1664 46.0507 52.6163 45.7507 52.9163C45.6508 53.0163 45.5508 53.0662 45.4008 53.1162L36.6024 55.0159C36.5024 55.0159 36.4024 55.0659 36.3025 55.0659ZM40.9516 48.617L36.0525 53.5162C35.9525 53.6161 35.9025 53.7661 36.0025 53.9161C36.0525 54.0661 36.2025 54.1161 36.3524 54.0661L44.601 52.2664L40.9516 48.617Z" fill="#FF6C37"/>
<path d="M79.1947 21.072C75.9953 17.9726 70.8462 18.0725 67.7468 21.322C64.6473 24.5714 64.7473 29.6705 67.9967 32.7699C70.6463 35.3194 74.6455 35.7694 77.795 33.8697L72.096 28.1707L79.1947 21.072Z" fill="white"/>
<path d="M73.5958 35.5194C68.8466 35.5194 64.9973 31.6701 64.9973 26.921C64.9973 22.1718 68.8466 18.3225 73.5958 18.3225C75.7954 18.3225 77.945 19.1723 79.5447 20.7221C79.6447 20.8221 79.6947 20.922 79.6947 21.072C79.6947 21.222 79.6447 21.322 79.5447 21.4219L72.7959 28.1707L78.095 33.4698C78.2949 33.6697 78.2949 33.9697 78.095 34.1696C78.045 34.2196 78.045 34.2196 77.995 34.2696C76.6952 35.0695 75.1455 35.5194 73.5958 35.5194ZM73.5958 19.3723C69.3965 19.3723 65.9971 22.7717 66.0471 26.9709C66.0471 31.1702 69.4465 34.5696 73.6458 34.5196C74.7956 34.5196 75.9453 34.2696 76.9952 33.7197L71.7461 28.5207C71.6461 28.4207 71.5961 28.3207 71.5961 28.1707C71.5961 28.0208 71.6461 27.9208 71.7461 27.8208L78.4449 21.122C77.0951 19.9722 75.3954 19.3723 73.5958 19.3723Z" fill="#FF6C37"/>
<path d="M79.3447 21.222L79.2447 21.122L72.096 28.1707L77.745 33.8197C78.2949 33.4698 78.8448 33.0698 79.2947 32.6199C82.4941 29.4705 82.4941 24.3714 79.3447 21.222Z" fill="white"/>
<path d="M77.795 34.3696C77.645 34.3696 77.5451 34.3196 77.4451 34.2196L71.7461 28.5207C71.6461 28.4207 71.5961 28.3207 71.5961 28.1707C71.5961 28.0208 71.6461 27.9208 71.7461 27.8208L78.8448 20.7221C79.0448 20.5221 79.3447 20.5221 79.5447 20.7221L79.6947 20.8221C83.0441 24.1714 83.0441 29.5705 79.7447 32.9699C79.2448 33.4698 78.6948 33.9197 78.095 34.2696C77.945 34.3196 77.845 34.3696 77.795 34.3696ZM72.7959 28.1707L77.845 33.2198C78.2449 32.9699 78.6449 32.6199 78.9448 32.32C81.7943 29.4705 81.9443 24.8213 79.1948 21.8219L72.7959 28.1707Z" fill="#FF6C37"/>
<path d="M68.8966 33.6697C67.6968 32.47 65.7472 32.47 64.5474 33.6697L45.7008 52.5163L48.8502 55.6658L68.7966 38.1689C70.0964 37.0691 70.1964 35.1195 69.0966 33.8197C68.9966 33.7697 68.9466 33.7197 68.8966 33.6697Z" fill="white"/>
<path d="M48.8002 56.1657C48.6502 56.1657 48.5503 56.1157 48.4503 56.0157L45.3009 52.8663C45.1009 52.6663 45.1009 52.3664 45.3009 52.1664L64.1475 33.3198C65.5472 31.9201 67.7968 31.9201 69.1965 33.3198C70.5963 34.7195 70.5963 36.9691 69.1965 38.3689C69.1466 38.4189 69.0966 38.4689 69.0466 38.5189L49.1002 56.0157C49.0502 56.1157 48.9502 56.1657 48.8002 56.1657ZM46.4007 52.5163L48.8502 54.9659L68.4467 37.769C69.5465 36.8692 69.6465 35.2195 68.7466 34.1197C67.8468 33.0199 66.1971 32.9199 65.0973 33.8197C65.0473 33.8697 64.9973 33.9197 64.8973 33.9697L46.4007 52.5163Z" fill="#FF6C37"/>
<path d="M31.2534 73.9625C31.0535 74.0625 30.9535 74.2624 31.0035 74.4624L31.8533 78.0617C32.0533 78.5616 31.7533 79.1615 31.2034 79.3115C30.8035 79.4615 30.3536 79.3115 30.1036 79.0116L24.6046 73.5625L42.5514 55.6158L48.7503 55.7158L52.9495 59.915C51.9497 60.7649 45.9008 66.6138 31.2534 73.9625Z" fill="white"/>
<path d="M30.8535 79.8114C30.4535 79.8114 30.0536 79.6615 29.8036 79.3615L24.3546 73.9125C24.2546 73.8125 24.2047 73.7125 24.2047 73.5625C24.2047 73.4126 24.2546 73.3126 24.3546 73.2126L42.3014 55.2658C42.4014 55.1659 42.5513 55.1159 42.6513 55.1159L48.8502 55.2159C49.0002 55.2159 49.1002 55.2658 49.2001 55.3658L53.3994 59.5651C53.4994 59.6651 53.5494 59.815 53.5494 59.965C53.5494 60.115 53.4994 60.215 53.3494 60.3149L52.9995 60.6149C47.7004 65.264 40.5017 69.9132 31.5533 74.3624L32.4032 77.9118C32.5531 78.5616 32.2532 79.2615 31.6533 79.6115C31.3534 79.7614 31.1034 79.8114 30.8535 79.8114ZM25.3544 73.5625L30.5035 78.6616C30.6535 78.9116 30.9534 79.0116 31.2034 78.8616C31.4533 78.7116 31.5533 78.4117 31.4034 78.1617L30.5535 74.5624C30.4535 74.1124 30.6535 73.7125 31.0534 73.5126C39.9018 69.0634 47.0505 64.4642 52.2996 59.915L48.6003 56.2157L42.8513 56.1157L25.3544 73.5625Z" fill="#FF6C37"/>
<path d="M20.3554 77.8618L24.6546 73.5625L31.0534 79.9614L20.8553 79.2615C20.4053 79.2115 20.1054 78.8116 20.1554 78.3617C20.1554 78.1617 20.2054 77.9618 20.3554 77.8618Z" fill="white"/>
<path d="M31.0534 80.4113L20.8053 79.7114C20.0554 79.6614 19.5555 79.0116 19.6055 78.2617C19.6555 77.9618 19.7555 77.6618 20.0054 77.4618L24.3046 73.1626C24.5046 72.9627 24.8046 72.9627 25.0045 73.1626L31.4034 79.5615C31.5533 79.7114 31.6033 79.9114 31.5033 80.1114C31.4034 80.3113 31.2534 80.4113 31.0534 80.4113ZM24.6546 74.2624L20.7053 78.2117C20.5553 78.3117 20.5553 78.5616 20.7053 78.6616C20.7553 78.7116 20.8053 78.7616 20.9053 78.7616L29.7537 79.3615L24.6546 74.2624Z" fill="#FF6C37"/>
<path d="M40.8017 57.9154C40.5017 57.9154 40.3018 57.6654 40.3018 57.4155C40.3018 57.2655 40.3517 57.1655 40.4517 57.0655L45.3009 52.2164C45.5008 52.0164 45.8008 52.0164 46.0007 52.2164L49.1502 55.3658C49.3001 55.5158 49.3501 55.6658 49.3001 55.8657C49.2501 56.0157 49.1002 56.1657 48.9002 56.2157L40.9017 57.9154C40.8517 57.9154 40.8017 57.9154 40.8017 57.9154ZM45.6508 53.2662L42.3514 56.5656L47.7504 55.4158L45.6508 53.2662Z" fill="#FF6C37"/>
<path d="M48.7503 55.7158L43.2512 56.9155C42.8513 57.0155 42.4514 56.7656 42.3514 56.3656C42.3014 56.1157 42.3514 55.8657 42.5514 55.6658L45.6008 52.6163L48.7503 55.7158Z" fill="white"/>
<path d="M43.1513 57.4155C42.4514 57.4155 41.9015 56.8656 41.9015 56.1657C41.9015 55.8157 42.0515 55.5158 42.2514 55.2658L45.3009 52.2164C45.5008 52.0164 45.8008 52.0164 46.0007 52.2164L49.1502 55.3658C49.3002 55.5158 49.3501 55.6658 49.3002 55.8657C49.2502 56.0157 49.1002 56.1657 48.9002 56.2157L43.4012 57.4155C43.3012 57.4155 43.2013 57.4155 43.1513 57.4155ZM45.6508 53.2662L42.9513 55.9657C42.8513 56.0657 42.8513 56.1657 42.9013 56.2657C42.9513 56.3656 43.0513 56.4156 43.2013 56.4156L47.8004 55.4158L45.6508 53.2662Z" fill="#FF6C37"/>
<path d="M79.3947 26.0211C79.2947 25.7212 78.9448 25.5712 78.6448 25.6712C78.3449 25.7712 78.1949 26.1211 78.2949 26.421C78.2949 26.471 78.3449 26.521 78.3449 26.571C78.6448 27.1709 78.5449 27.9208 78.1449 28.4707C77.945 28.7206 77.995 29.0706 78.1949 29.2705C78.4449 29.4705 78.7948 29.4205 78.9948 29.1705C79.7446 28.2207 79.8946 27.0209 79.3947 26.0211Z" fill="#FF6C37"/>
</g>
<defs>
<clipPath id="clip0_308_2316">
<rect width="100" height="100" fill="white" transform="translate(0 0.666672)"/>
</clipPath>
</defs>
</svg>
