<svg width="100" height="100" viewBox="0 0 100 100" fill="none" xmlns="http://www.w3.org/2000/svg">
<path fill-rule="evenodd" clip-rule="evenodd" d="M2.5 6.14643C2.5 9.53929 5.28214 12.2911 8.7125 12.2911H60.1964C66.0643 12.2911 70.8964 14.0839 74.6929 17.6696C78.4893 21.2554 80.3875 25.8643 80.3875 31.4982C80.3875 36.7054 78.4893 40.9732 74.6911 44.3018C70.8964 47.5464 66.0643 49.1679 60.1964 49.1679H37.8214C34.3893 49.1679 31.6071 51.9179 31.6071 55.3143C31.6071 58.7071 34.3893 61.4589 37.8214 61.4589H62.5286L84.7893 96.7982C86.1696 98.9339 88.1107 100 90.6125 100C93.375 100 95.3161 98.9339 96.4375 96.7982C97.5589 94.5804 97.3429 92.2321 95.7911 89.7571L75.9875 58.2571C81.3375 55.8679 85.5661 52.3679 88.6714 47.7589C91.7786 43.0643 93.3321 37.6446 93.3321 31.4982C93.3321 25.2661 91.9071 19.8036 89.0607 15.1089C86.3 10.4125 82.4179 6.74286 77.4125 4.09643C72.4071 1.36429 66.6696 0 60.1964 0H8.71429C5.28214 0 2.5 2.75 2.5 6.14643Z" fill="white"/>
</svg>
