<svg width="100" height="101" viewBox="0 0 100 101" fill="none" xmlns="http://www.w3.org/2000/svg">
<g clip-path="url(#clip0_287_1922)">
<path d="M94.5814 100.667H5.69252C2.63986 100.667 0.136963 98.1638 0.136963 95.1111V6.22224C0.136963 3.16958 2.63986 0.666687 5.69252 0.666687H94.5814C97.6341 0.666687 100.137 3.16958 100.137 6.22224V95.1111C100.137 98.1638 97.6341 100.667 94.5814 100.667Z" fill="url(#paint0_linear_287_1922)"/>
<path d="M66.8036 67.3334C91.3841 42.7529 55.7504 14.5556 55.7504 14.5556L41.847 0.666687H5.69252C2.63986 0.666687 0.136963 3.16958 0.136963 6.22224V45.0243L11.2481 56.1354C11.2481 56.1354 42.2232 91.9138 66.8036 67.3334Z" fill="url(#paint1_linear_287_1922)"/>
<path d="M55.7504 14.5557C87.4923 35.9388 77.2203 59.5209 77.2203 59.5209C77.2203 59.5209 86.2481 69.6193 82.6022 78.4446C82.6022 78.4446 78.884 72.2669 72.634 72.2669C66.6155 72.2669 63.0854 78.4446 50.9616 78.4446C23.994 78.4446 11.248 56.1355 11.248 56.1355C35.5391 71.9631 52.1335 60.7507 52.1335 60.7507C41.1815 54.4573 16.8036 22.889 16.8036 22.889C37.0727 39.9897 47.3592 45.1112 47.3592 45.1112C42.1364 40.8288 25.1369 20.1112 25.1369 20.1112C36.8702 31.8878 62.1016 48.9451 62.1016 48.9451C68.7278 30.7594 55.7504 14.5557 55.7504 14.5557Z" fill="white"/>
</g>
<defs>
<linearGradient id="paint0_linear_287_1922" x1="50.137" y1="12.5603" x2="50.137" y2="101.451" gradientUnits="userSpaceOnUse">
<stop stop-color="#FBA62D"/>
<stop offset="0.1739" stop-color="#FC8E2C"/>
<stop offset="0.5477" stop-color="#FE602A"/>
<stop offset="0.8353" stop-color="#FF4329"/>
<stop offset="1" stop-color="#FF3829"/>
</linearGradient>
<linearGradient id="paint1_linear_287_1922" x1="-0.663037" y1="1.04696" x2="55.6945" y2="57.4045" gradientUnits="userSpaceOnUse">
<stop stop-color="#FAA53D"/>
<stop offset="0.4375" stop-color="#E17A2F"/>
<stop offset="0.7951" stop-color="#D15D26"/>
<stop offset="1" stop-color="#CB5223"/>
</linearGradient>
<clipPath id="clip0_287_1922">
<rect width="100" height="100" fill="white" transform="translate(0 0.666687)"/>
</clipPath>
</defs>
</svg>
