<svg width="100" height="101" viewBox="0 0 100 101" fill="none" xmlns="http://www.w3.org/2000/svg">
<g clip-path="url(#clip0_305_2286)">
<path fill-rule="evenodd" clip-rule="evenodd" d="M31.4279 91.2462H23.6139V84.0746H31.305V85.6629H25.7047V86.8841H31.0063V88.3822H25.7078V89.6174H31.4279V91.2493V91.2462Z" fill="black"/>
<path fill-rule="evenodd" clip-rule="evenodd" d="M76.3861 91.2464H68.6949V84.1884H76.2663V85.744H70.7562V86.945H75.9738V88.4182H70.7562V89.6347H76.3861V91.2417V91.2464Z" fill="black"/>
<path fill-rule="evenodd" clip-rule="evenodd" d="M42.0234 91.2462H38.8623L34.6994 85.8823H34.659V91.2462H32.59V84.0746H35.8024L39.9139 89.4447H39.9544V84.0746H42.0281V91.2462H42.0234Z" fill="black"/>
<path fill-rule="evenodd" clip-rule="evenodd" d="M67.0786 91.2462H63.9176L59.7547 85.8823H59.7142V91.2462H57.6359V84.0746H60.8483L64.9598 89.4447H65.0003V84.0746H67.0786V91.2462Z" fill="black"/>
<path fill-rule="evenodd" clip-rule="evenodd" d="M48.1324 91.341C47.4697 91.341 46.8993 91.3245 46.4212 91.2913C46.006 91.2701 45.5939 91.2087 45.1907 91.1077C44.8951 91.034 44.6166 90.9035 44.3709 90.7235C44.1558 90.5558 43.9866 90.3363 43.8793 90.0856C43.75 89.782 43.6677 89.4604 43.635 89.132C43.5914 88.6916 43.5711 88.2492 43.5744 87.8066V87.5966C43.5712 87.1509 43.5925 86.7053 43.6382 86.2619C43.6688 85.9321 43.7496 85.609 43.8777 85.3036C43.9867 85.0539 44.1562 84.8352 44.3709 84.6673C44.6169 84.4885 44.8961 84.3605 45.1922 84.2909C45.5945 84.1907 46.0056 84.1297 46.4196 84.1089C46.9019 84.0777 47.4723 84.0622 48.1309 84.0622H48.442C48.9937 84.0622 49.477 84.0741 49.8918 84.098C50.2508 84.1158 50.6079 84.1595 50.9606 84.2286C51.2185 84.277 51.4676 84.364 51.6995 84.4869C51.8861 84.586 52.0461 84.7284 52.1662 84.9022C52.2852 85.0857 52.3651 85.2917 52.4011 85.5074C52.4477 85.7792 52.4695 86.0546 52.4664 86.3303V86.6057H50.4441V86.5185C50.448 86.3778 50.422 86.2378 50.3679 86.1079C50.3046 85.9859 50.1989 85.8913 50.0707 85.8418C49.8714 85.7647 49.6617 85.7175 49.4485 85.7018C49.1809 85.6759 48.8283 85.6624 48.3907 85.6614H48.2133C47.8161 85.6614 47.477 85.6681 47.1959 85.6816C46.9598 85.6898 46.725 85.7195 46.4943 85.7703C46.3344 85.8045 46.1834 85.8718 46.051 85.9678C45.9377 86.0578 45.8525 86.1781 45.8052 86.3148C45.7465 86.4908 45.712 86.6739 45.7025 86.8592C45.6869 87.0755 45.6792 87.3353 45.6792 87.6371V87.7646C45.6792 88.0617 45.6869 88.3153 45.7025 88.5269C45.7124 88.7086 45.7469 88.8881 45.8052 89.0605C45.8525 89.1962 45.9378 89.3155 46.051 89.4043C46.1834 89.5003 46.3344 89.5676 46.4943 89.6018C46.725 89.6525 46.9599 89.6822 47.1959 89.6905C47.477 89.705 47.8161 89.7118 48.2133 89.7107H48.3907C48.7142 89.7107 48.9927 89.7107 49.226 89.6936C49.4594 89.6765 49.6569 89.6625 49.8172 89.6376C49.949 89.6191 50.0777 89.583 50.1999 89.5303C50.2872 89.4913 50.3636 89.4315 50.4223 89.356C50.4759 89.284 50.5117 89.2003 50.5265 89.1118C50.5438 89.0027 50.5521 88.8924 50.5514 88.782V88.5829H47.7995V87.1984H52.5489V88.7913C52.5523 89.095 52.5299 89.3984 52.482 89.6983C52.4436 89.9359 52.3613 90.1644 52.2393 90.3719C52.1219 90.5614 51.9622 90.7212 51.7726 90.8386C51.5398 90.9775 51.2861 91.0778 51.0212 91.1357C50.663 91.2166 50.2989 91.2686 49.9323 91.2913C49.5092 91.3224 49.0176 91.3379 48.4544 91.3379L48.1324 91.341Z" fill="black"/>
<path fill-rule="evenodd" clip-rule="evenodd" d="M56.1113 91.2633H54.0096V84.1447H56.1113V91.2633Z" fill="black"/>
<path fill-rule="evenodd" clip-rule="evenodd" d="M7.50046 80.3179C6.48411 80.3179 5.59324 80.2904 4.82786 80.2354C4.16078 80.1964 3.49797 80.1033 2.84597 79.957C2.36075 79.8522 1.89507 79.6716 1.46611 79.4218C1.11444 79.21 0.815907 78.9205 0.593395 78.5755C0.363858 78.2055 0.208027 77.7945 0.13448 77.3653C0.0385674 76.8241 -0.00622522 76.2751 0.000694663 75.7256V67.6362H3.68757V74.5309C3.68757 74.9571 3.70261 75.3232 3.73269 75.6292C3.75381 75.8961 3.81518 76.1584 3.9147 76.407C3.9987 76.613 4.13553 76.7933 4.31139 76.9297C4.51732 77.0776 4.75047 77.1833 4.99743 77.2408C5.34133 77.3278 5.69313 77.38 6.04749 77.3964C6.4644 77.4197 6.9591 77.4321 7.53624 77.4321H7.84737C8.42296 77.4321 8.91869 77.4187 9.33457 77.3917C9.68881 77.3739 10.0408 77.3244 10.3862 77.2439C10.6338 77.1884 10.8674 77.0825 11.0722 76.9328C11.2458 76.7946 11.3817 76.6148 11.4674 76.4101C11.5682 76.1618 11.6301 75.8994 11.6509 75.6323C11.68 75.3211 11.6945 74.9582 11.6945 74.5433V67.6347H15.3829V75.724C15.3883 76.2716 15.3466 76.8186 15.2585 77.359C15.1902 77.7892 15.0385 78.202 14.812 78.574C14.593 78.9186 14.2976 79.2082 13.9486 79.4203C13.5209 79.6704 13.0562 79.851 12.5719 79.9554C11.9173 80.1021 11.2519 80.1953 10.5822 80.2339C9.80956 80.2878 8.90988 80.3153 7.88315 80.3163L7.50046 80.3179Z" fill="black"/>
<path fill-rule="evenodd" clip-rule="evenodd" d="M34.3417 80.1639H28.8285L21.5698 70.7833H21.4983V80.1639H17.8829V67.6176H23.4833L30.6532 77.0075H30.7232V67.6176H34.3386V80.1577L34.3417 80.1639Z" fill="black"/>
<path fill-rule="evenodd" clip-rule="evenodd" d="M45.2109 73.9521C45.8472 73.9521 46.3528 73.9334 46.7308 73.8945C47.0315 73.877 47.3246 73.7936 47.5895 73.6503C47.7788 73.536 47.9161 73.3524 47.9722 73.1385C48.0392 72.8536 48.0695 72.5614 48.0624 72.2689V72.0527C48.0691 71.7637 48.0388 71.4752 47.9722 71.1939C47.945 71.0881 47.8967 70.9889 47.8301 70.9023C47.7635 70.8157 47.6801 70.7434 47.5848 70.6899C47.3166 70.5521 47.0225 70.4721 46.7215 70.455C46.3434 70.4161 45.841 70.3974 45.2109 70.3974H40.6155V73.9521H45.2109ZM51.7757 80.1638H48.1324V79.1464C48.1351 78.8306 48.1206 78.5148 48.0889 78.2006C48.0674 77.9675 48.0036 77.7403 47.9006 77.5301C47.8084 77.3507 47.6705 77.1989 47.5008 77.0898C47.2912 76.9636 47.0603 76.8766 46.8195 76.8332C46.4758 76.7652 46.1273 76.7246 45.7772 76.7118C45.3623 76.69 44.8708 76.6791 44.3024 76.6791H40.6155V80.1638H36.9629V67.6175H46.6903C47.5344 67.6036 48.378 67.6672 49.2105 67.8073C49.7719 67.8931 50.3049 68.1106 50.7661 68.442C51.1472 68.7417 51.4234 69.1545 51.5548 69.6212C51.7127 70.2125 51.7861 70.8232 51.7726 71.4351V71.8753C51.7778 72.309 51.7392 72.7421 51.6575 73.1681C51.592 73.5062 51.4649 73.8294 51.2826 74.1217C51.1109 74.388 50.8831 74.6136 50.6152 74.7828C50.3049 74.9716 49.9644 75.1058 49.6087 75.1795V75.2511C49.9777 75.3052 50.34 75.3975 50.6899 75.5264C50.9547 75.6233 51.1855 75.7952 51.3542 76.0211C51.5296 76.2782 51.6426 76.5728 51.684 76.8814C51.7498 77.331 51.7795 77.7851 51.7726 78.2395V80.1576L51.7757 80.1638Z" fill="black"/>
<path fill-rule="evenodd" clip-rule="evenodd" d="M67.7973 80.1639H54.1699V67.6176H67.5826V70.3913H57.821V72.5241H67.0662V75.1438H57.821V77.3046H67.7973V80.1577V80.1639Z" fill="black"/>
<path fill-rule="evenodd" clip-rule="evenodd" d="M80.118 75.304L77.5621 70.2715H77.4719L74.9346 75.304H80.118ZM86.5708 80.1732H82.5946L81.445 77.9222H73.6247L72.4938 80.1732H68.5471L75.2815 67.6347H79.8069L86.5708 80.1732Z" fill="black"/>
<path fill-rule="evenodd" clip-rule="evenodd" d="M100.001 80.1732H87.9227V67.6347H91.6096V77.2626H100.001V80.1794V80.1732Z" fill="black"/>
<path fill-rule="evenodd" clip-rule="evenodd" d="M65.0749 38.6825C64.6378 40.7919 62.6917 46.2025 56.4893 49.1333L54.0003 46.3331L49.8001 50.5583C47.4085 50.5261 45.0568 49.9414 42.9286 48.8498C40.8005 47.7582 38.9536 46.1893 37.5322 44.2657C37.9791 44.4047 38.4406 44.4913 38.9074 44.5239C39.595 44.5364 40.3402 44.2843 40.3402 43.1238V31.7287C40.3505 31.4355 40.2918 31.1439 40.169 30.8775C40.0461 30.611 39.8625 30.3771 39.6328 30.1945C39.4032 30.0119 39.1339 29.8857 38.8466 29.8261C38.5593 29.7664 38.2621 29.775 37.9787 29.8511C36.0341 30.296 34.4785 35.1511 34.4785 35.1511C34.4569 32.9091 34.9238 30.6892 35.8469 28.6459C36.77 26.6025 38.127 24.7847 39.8237 23.3189C42.7203 20.8641 45.55 20.0147 47.6999 19.6818C45.5765 20.8921 44.3817 22.8678 44.3817 24.5261C44.3817 27.1847 45.9872 26.8704 46.4632 26.4784V41.8669C46.5437 42.0602 46.6482 42.2426 46.7743 42.4098C46.987 42.7039 47.2671 42.9427 47.5911 43.1062C47.9151 43.2696 48.2735 43.3531 48.6364 43.3494C50.245 43.3494 52.3311 41.5137 52.3311 41.5137V29.053C52.3311 27.7852 51.3759 26.2529 50.4192 25.7302C50.4192 25.7302 52.1895 25.419 53.5585 26.4629C53.8152 26.1484 54.0884 25.8478 54.3768 25.5621C57.5596 22.4353 60.5636 21.5486 63.065 21.1037C63.065 21.1037 58.5117 24.6817 58.5117 29.473C58.5117 33.0401 58.6035 41.7377 58.6035 41.7377C60.2975 43.365 62.8068 41.0159 65.0749 38.6825Z" fill="black"/>
<path fill-rule="evenodd" clip-rule="evenodd" d="M50.0007 9.66667C44.9834 9.66698 40.0789 11.1551 35.9073 13.9428C31.7357 16.7305 28.4845 20.6926 26.5648 25.3281C24.645 29.9636 24.143 35.0643 25.1221 39.9851C26.1012 44.906 28.5176 49.426 32.0655 52.9735C35.6135 56.521 40.1338 58.9368 45.0548 59.9154C49.9757 60.8939 55.0763 60.3912 59.7116 58.4709C64.3468 56.5506 68.3086 53.2988 71.0958 49.1269C73.883 44.955 75.3705 40.0503 75.3702 35.033C75.3702 31.7016 74.7139 28.4028 73.439 25.325C72.164 22.2472 70.2953 19.4507 67.9394 17.0952C65.5836 14.7397 62.7869 12.8713 59.7089 11.5967C56.631 10.3221 53.3321 9.66626 50.0007 9.66667ZM50.0007 59.3867C45.1839 59.387 40.4753 57.9589 36.4701 55.2831C32.465 52.6073 29.3433 48.8039 27.4998 44.3538C25.6563 39.9038 25.1738 35.0071 26.1133 30.2828C27.0528 25.5586 29.3721 21.219 32.778 17.813C36.1838 14.4069 40.5232 12.0873 45.2474 11.1475C49.9716 10.2076 54.8684 10.6898 59.3185 12.5331C63.7687 14.3763 67.5723 17.4977 70.2483 21.5027C72.9244 25.5077 74.3528 30.2163 74.3528 35.033C74.3528 41.4917 71.7872 47.6859 67.2203 52.2531C62.6535 56.8202 56.4594 59.3862 50.0007 59.3867Z" fill="black"/>
</g>
<defs>
<clipPath id="clip0_305_2286">
<rect width="100" height="100" fill="white" transform="translate(0 0.666672)"/>
</clipPath>
</defs>
</svg>
