<svg width="100" height="101" viewBox="0 0 100 101" fill="none" xmlns="http://www.w3.org/2000/svg">
<path d="M91.6667 79.5L13.7478 91.7939L4.16666 29.0877L81.6623 17.2062L91.6667 79.5Z" fill="#03A9F4"/>
<path d="M81.6623 17.2062L91.6667 79.5L13.7478 91.7939L12.9123 85.75L81.6623 17.2062Z" fill="#039BE5"/>
<path d="M4.16666 29.0877L9.16883 61.3793L46.2457 22.6207L4.16666 29.0877Z" fill="#29B6F6"/>
<path d="M17.296 86.9978L8.96268 32.4189L78.3312 21.796L87.0877 75.9627L17.296 86.9978ZM13.7478 35.9562L20.8333 82.2127L82.2917 72.4145L75 26.375L13.7478 35.9562Z" fill="white"/>
<path d="M23.1228 56.5833L23.9583 62.8333L75 54.7062L73.9583 48.4562L23.1228 56.5833Z" fill="white"/>
<path d="M34.5812 71.796L28.125 79.5L28.9605 69.4957C28.9605 69.2895 28.9605 69.0834 29.1667 68.8772L39.9957 42.4124C40.4188 41.3707 41.6667 40.7522 42.7083 41.3707L44.5855 42.2062C45.6272 42.6294 46.2457 43.8772 45.6272 44.9189L35.0043 71.1667C34.7873 71.3729 34.7873 71.579 34.5812 71.796Z" fill="white"/>
<path d="M63.954 61.1623L44.5855 38.4627C43.75 37.6272 43.9561 36.1623 44.7916 35.5439L46.4626 34.296C47.2873 33.4605 48.7521 33.6667 49.3706 34.5022L68.75 57.2127L63.954 61.1623Z" fill="white"/>
<path d="M69.9978 58.6667C69.9978 58.6667 75 60.1207 75 65.9584C75 69.7127 73.9583 71.1667 73.9583 71.1667C73.9583 71.1667 73.1228 68.671 69.1623 67.2062C63.7478 65.329 63.954 61.1623 63.954 61.1623L68.5438 60.1207L69.9978 58.6667Z" fill="white"/>
<path d="M42.5022 52.4167L39.9957 58.4605L43.9562 54.7062L44.7917 52.4167H42.5022Z" fill="#03A9F4"/>
<path d="M40.625 62.8333L43.9561 54.7062L39.9956 58.4605L38.3355 62.8333H40.625Z" fill="#039BE5"/>
<path d="M31.6623 62.8334L35.829 52.4167H33.5395L29.3728 62.8334H31.6623Z" fill="#03A9F4"/>
<path d="M70.6272 56.171L63.7478 48.25H61.046L68.3377 56.5833L68.75 57.2127L63.954 61.1623L61.2522 58.0373L54.579 50.3333H51.8772L58.1272 57.625L62.2938 62.6272L63.7478 64.0812L65.2127 62.8333L69.9978 58.6667L71.6688 57.4188L70.6272 56.171Z" fill="#039BE5"/>
<path d="M35.4167 43.8772V46.1667L45.8333 50.5395V48.25L35.4167 43.8772Z" fill="#03A9F4"/>
<path d="M37.5 70.3312L31.0438 67.6293L29.3728 69.2895L37.5 72.6207V70.3312Z" fill="#039BE5"/>
<path d="M27.0833 65.9583V68.2478L29.3728 69.2895L31.0438 67.6294L27.0833 65.9583Z" fill="#03A9F4"/>
<path d="M78.9605 25.7457V25.9627L80.4145 34.7083L83.1272 27.2105C83.1272 27.0044 83.3333 26.7873 83.3333 26.5812L82.4978 21.796C80.8377 22.8377 79.3728 24.4978 78.9605 25.7457Z" fill="#0277BD"/>
<path d="M70.6272 67.8355C70.204 67.6294 69.7916 67.4124 69.1623 67.2062C68.1206 66.7939 67.5022 66.5877 66.8728 66.1645L64.171 75.3334L68.75 74.704L70.6272 67.8355Z" fill="#0277BD"/>
<path d="M62.9123 79.7062L61.8706 84.296L66.2543 83.4605L67.5021 79.0877L62.9123 79.7062Z" fill="#0277BD"/>
<path d="M72.5043 45.7543V45.9605L71.6688 48.8793L73.9583 48.4562L74.7938 53.046L76.454 47.0022L77.4956 43.671L76.0417 34.5022L73.7522 41.7938L72.5043 45.7543Z" fill="#0277BD"/>
<path d="M76.0417 34.5022L77.4956 43.671L80.2083 34.7083L78.7543 25.9627C77.7127 28.8707 76.671 31.7895 76.454 32.2127L76.0417 34.5022Z" fill="#90A4AE"/>
<path d="M64.171 75.3334L62.9123 79.7062L67.5022 79.0877L68.75 74.704L64.171 75.3334Z" fill="#90A4AE"/>
<path d="M74.7938 53.046L73.9583 48.4562L71.6688 48.8794L69.7917 55.5417L74.1645 54.9123L74.7938 53.046Z" fill="#90A4AE"/>
<path d="M69.9978 58.6667L68.75 59.296L66.8728 66.1645C67.5021 66.5877 68.3376 67 69.1623 67.2062C69.7916 67.4123 70.204 67.6294 70.6271 67.8355L72.7105 60.3377C71.4626 59.079 69.9978 58.6667 69.9978 58.6667Z" fill="#90A4AE"/>
<path d="M72.7105 60.3377L74.1645 54.7062L69.5855 55.3355L68.3376 59.9145L69.9978 58.4605C69.9978 58.6667 71.4626 59.079 72.7105 60.3377Z" fill="#0277BD"/>
<path d="M69.9978 58.6667L68.3377 60.1207L66.6667 66.1645C67.296 66.5877 68.1207 67 68.9562 67.2062C69.5855 67.4123 69.9978 67.6294 70.421 67.8355L72.5043 60.3377C71.4627 59.079 69.9978 58.6667 69.9978 58.6667Z" fill="#90A4AE"/>
<path d="M75 9.70834C62.5 9.70834 54.1667 12.8333 54.1667 12.8333V13.875C72.0812 13.875 74.3707 20.5373 75 22.2083V9.70834Z" fill="#78909C"/>
<path d="M91.6666 13.4627C91.2543 14.2873 90.8311 14.9167 89.5833 14.9167C87.2938 14.9167 85.4166 11.5855 85.4166 11.5855C81.8793 9.29602 75 6.58334 68.75 6.58334C56.25 6.58334 52.0833 9.70834 52.0833 9.70834V10.75C60.829 10.75 64.171 11.5855 67.296 13.875C72.2873 17.6294 71.875 26.1688 69.9978 32.8312L66.2543 44.0833L72.2873 45.9605L76.671 32.2127C76.8771 31.9957 77.9188 28.8707 78.9605 25.7457C79.579 24.0855 81.25 22.0022 83.3333 21.3728C84.5811 20.9605 86.2521 20.7544 87.2938 21.579C88.3355 22.4145 88.3355 23.0438 88.1293 23.8794L92.296 25.1272L95.8333 14.9167L91.6666 13.4627Z" fill="#D7DEE2"/>
<path d="M89.5833 14.9167C87.2938 14.9167 85.4167 11.5855 85.4167 11.5855L83.7457 16.7938C83.1272 19.0833 80.6207 20.125 78.5373 19.4957L69.5855 16.5877C70.6272 18.454 71.0395 20.5373 71.2457 23.0438L79.1667 25.5395C79.796 24.2917 80.8377 22.8377 82.2917 22.0022C82.704 21.796 83.1272 21.579 83.5395 21.3728C84.7873 20.9605 86.4583 20.7543 87.5 21.579C88.5417 22.4145 88.5417 23.0438 88.3355 23.8793L91.6667 13.4627C91.2543 14.2873 90.8312 14.9167 89.5833 14.9167Z" fill="#90A4AE"/>
<path d="M66.2543 44.0833L48.1228 86.3794C47.0811 89.0812 48.546 92.4123 51.454 93.2478L53.3311 93.8772C56.25 94.7127 59.1688 93.0417 59.7873 90.9583L72.2873 45.9605L66.2543 44.0833Z" fill="#424242"/>
</svg>
