<svg width="193" height="163" viewBox="0 0 193 163" fill="none" xmlns="http://www.w3.org/2000/svg">
<path fill-rule="evenodd" clip-rule="evenodd" d="M147.475 162.625C153.838 162.625 158.997 157.553 158.997 151.295C158.997 145.038 153.838 139.965 147.475 139.965C141.111 139.965 135.952 145.038 135.952 151.295C135.952 157.553 141.111 162.625 147.475 162.625ZM147.475 157.796C151.126 157.796 154.086 154.885 154.086 151.295C154.086 147.705 151.126 144.794 147.475 144.794C143.823 144.794 140.864 147.705 140.864 151.295C140.864 154.885 143.823 157.796 147.475 157.796Z" fill="#492049"/>
<path d="M123.675 139.965C116.894 139.965 111.397 145.038 111.397 151.295C111.397 157.553 116.894 162.625 123.675 162.625C128.177 162.625 132.114 160.388 134.251 157.053L129.717 154.638C128.486 156.53 126.24 157.796 123.675 157.796C119.784 157.796 116.63 154.885 116.63 151.295C116.63 147.705 119.784 144.794 123.675 144.794C126.24 144.794 128.486 146.06 129.717 147.952L134.251 145.537C132.114 142.202 128.177 139.965 123.675 139.965Z" fill="#492049"/>
<path d="M107.241 162.439V140.336H101.952V162.439H107.241Z" fill="#492049"/>
<path d="M32.8182 140.336V144.98H40.9405V162.439H46.2295V144.98H54.3517V140.336H32.8182Z" fill="#492049"/>
<path d="M58.3184 162.439V140.336H63.4185V162.439H58.3184Z" fill="#492049"/>
<path d="M68.8963 162.439V140.336H74.7519L82.7797 156.496L90.8076 140.336H96.6632V162.439H91.3743V151.295L85.7076 162.439H80.0408L74.1852 151.295V162.439H68.8963Z" fill="#492049"/>
<g clip-path="url(#clip0_334_551)">
<path d="M1.06494 41.5165L31.4957 0.463941H159.126L128.516 41.5165H1.06494Z" fill="url(#paint0_linear_334_551)"/>
<path d="M191.884 41.5165L160.737 0.463941L141.942 41.5165H191.884Z" fill="url(#paint1_linear_334_551)"/>
<path d="M62.1055 41.5165V44.1594L123.466 50.1499L129.59 41.5165H62.1055Z" fill="#462047"/>
<path d="M159.126 0.463941H160.737L141.942 41.5165H128.516L159.126 0.463941Z" fill="#AE3A28"/>
<path d="M62.1055 44.1594L123.466 50.1499L62.1055 136.66V44.1594Z" fill="url(#paint2_linear_334_551)"/>
</g>
<defs>
<linearGradient id="paint0_linear_334_551" x1="1.06494" y1="20.9902" x2="159.126" y2="20.9902" gradientUnits="userSpaceOnUse">
<stop stop-color="#294D8F"/>
<stop offset="1" stop-color="#1A9F68"/>
</linearGradient>
<linearGradient id="paint1_linear_334_551" x1="141.942" y1="20.9902" x2="191.884" y2="20.9902" gradientUnits="userSpaceOnUse">
<stop stop-color="#DD4A2A"/>
<stop offset="1" stop-color="#FF9F33"/>
</linearGradient>
<linearGradient id="paint2_linear_334_551" x1="92.7861" y1="136.66" x2="92.7861" y2="44.1595" gradientUnits="userSpaceOnUse">
<stop stop-color="#D51A61"/>
<stop offset="1" stop-color="#65245E"/>
</linearGradient>
<clipPath id="clip0_334_551">
<rect width="191.535" height="137.077" fill="white" transform="translate(0.706909 0.287743)"/>
</clipPath>
</defs>
</svg>
