<svg width="100" height="101" viewBox="0 0 100 101" fill="none" xmlns="http://www.w3.org/2000/svg">
<g clip-path="url(#clip0_290_2029)">
<path fill-rule="evenodd" clip-rule="evenodd" d="M47.6234 1.01406C49.248 0.108758 51.2322 0.108758 52.8444 1.01406C60.8433 5.49095 84.8771 18.996 92.8636 23.4729C94.4882 24.3782 95.4803 26.0524 95.4803 27.8754C95.4803 36.8416 95.4803 63.827 95.4803 72.7931C95.4803 74.6037 94.4882 76.2903 92.8636 77.1956C84.8771 81.6725 60.8433 95.1776 52.8444 99.6545C51.2322 100.56 49.248 100.56 47.6234 99.6545C39.637 95.1776 15.6031 81.6725 7.60425 77.1956C5.99208 76.2903 4.99997 74.6161 4.99997 72.7931C4.99997 63.827 4.99997 36.8416 4.99997 27.8754C4.99997 26.0648 5.99208 24.3782 7.61666 23.4729C15.6031 18.996 39.637 5.49095 47.6234 1.01406Z" fill="#283593"/>
<path fill-rule="evenodd" clip-rule="evenodd" d="M5.71925 75.1122C5.08678 74.2565 4.99997 73.4504 4.99997 72.3715C4.99997 63.4549 4.99997 36.6183 4.99997 27.7018C4.99997 25.9036 5.99208 24.2294 7.60425 23.3365C15.5659 18.872 39.5254 5.45372 47.487 1.00163C49.0992 0.0963301 51.2818 0.121134 52.894 1.01403C60.8557 5.47852 84.7283 18.7728 92.69 23.2373C93.3349 23.5969 93.8185 24.031 94.265 24.6014L5.71925 75.1122Z" fill="#5C6BC0"/>
<path fill-rule="evenodd" clip-rule="evenodd" d="M50.2402 16.9994C68.6438 16.9994 83.575 31.9306 83.575 50.3342C83.575 68.7379 68.6438 83.6691 50.2402 83.6691C31.8365 83.6691 16.9053 68.7379 16.9053 50.3342C16.9053 31.9306 31.8365 16.9994 50.2402 16.9994ZM50.2402 33.6668C59.442 33.6668 66.9076 41.1324 66.9076 50.3342C66.9076 59.5361 59.442 67.0017 50.2402 67.0017C41.0384 67.0017 33.5727 59.5361 33.5727 50.3342C33.5727 41.1324 41.0384 33.6668 50.2402 33.6668Z" fill="white"/>
<path fill-rule="evenodd" clip-rule="evenodd" d="M94.2526 24.6261C95.4803 25.7794 95.4555 27.5156 95.4555 28.8798C95.4555 37.9204 95.3811 63.616 95.4803 72.6566C95.4927 73.5991 95.1827 74.5912 94.7114 75.3353L49.2729 50.3341L94.2526 24.6261Z" fill="#3949AB"/>
</g>
<defs>
<clipPath id="clip0_290_2029">
<rect width="100" height="100" fill="white" transform="translate(0 0.333374)"/>
</clipPath>
</defs>
</svg>
