<svg width="100" height="101" viewBox="0 0 100 101" fill="none" xmlns="http://www.w3.org/2000/svg">
<g clip-path="url(#clip0_289_2008)">
<path d="M94.2392 29.6571C94.2385 27.98 93.8799 26.4981 93.1545 25.2262C92.442 23.9755 91.375 22.9273 89.9437 22.0984C78.1295 15.2863 66.3038 8.49496 54.4934 1.67587C51.3094 -0.162329 48.2222 -0.0953148 45.0618 1.76927C40.3594 4.54253 16.816 18.0311 9.80035 22.0946C6.91111 23.7672 5.50521 26.3269 5.50451 29.654C5.5 43.3536 5.50451 57.0529 5.5 70.7529C5.5 72.3932 5.8441 73.8464 6.5375 75.0991C7.25035 76.3877 8.33229 77.4648 9.79653 78.3123C16.8125 82.3759 40.359 95.8634 45.0604 98.6373C48.2222 100.503 51.3094 100.57 54.4944 98.7307C66.3052 91.9113 78.1316 85.1203 89.9476 78.3082C91.4118 77.4609 92.4937 76.3831 93.2066 75.0956C93.899 73.8429 94.2437 72.3898 94.2437 70.7491C94.2437 70.7491 94.2437 43.3571 94.2392 29.6571Z" fill="#A179DC"/>
<path d="M50.0076 50.0699L6.53748 75.0991C7.25032 76.3877 8.33227 77.4647 9.7965 78.3123C16.8125 82.3759 40.359 95.8634 45.0604 98.6373C48.2222 100.503 51.3093 100.57 54.4944 98.7307C66.3052 91.9113 78.1316 85.1203 89.9475 78.3081C91.4118 77.4609 92.4937 76.3831 93.2066 75.0956L50.0076 50.0699Z" fill="#280068"/>
<path d="M94.2392 29.6571C94.2385 27.98 93.8798 26.4981 93.1545 25.2262L50.0076 50.0699L93.2066 75.0956C93.8989 73.8429 94.243 72.3897 94.2437 70.7491C94.2437 70.7491 94.2437 43.3571 94.2392 29.6571Z" fill="#390091"/>
<path d="M75.6015 40.7133V45.3916H80.2799V40.7133H82.6191V45.3916H87.2974V47.7308H82.6191V52.4092H87.2974V54.7483H82.6191V59.4267H80.2799V54.7483H75.6015V59.4267H73.2624V54.7483H68.584V52.4092H73.2624V47.7308H68.584V45.3916H73.2624V40.7133H75.6015ZM80.2799 47.7308H75.6015V52.4092H80.2799V47.7308Z" fill="white"/>
<path d="M50.1031 17.2173C62.3058 17.2173 72.9597 23.8445 78.6662 33.6951L78.6105 33.6003L64.2534 41.8671C61.4247 37.0777 56.239 33.8455 50.2904 33.779L50.1031 33.7779C41.0317 33.7779 33.6773 41.1319 33.6773 50.2033C33.6773 53.1698 34.4682 55.9506 35.8437 58.3524C38.6749 63.2952 43.9974 66.629 50.1031 66.629C56.2464 66.629 61.5992 63.2528 64.4161 58.2572L64.3477 58.3771L78.6832 66.6819C73.0394 76.4491 62.5314 83.0559 50.4705 83.1876L50.1031 83.1896C37.8619 83.1896 27.1776 76.5216 21.4855 66.6189C18.7067 61.7845 17.1168 56.1799 17.1168 50.2033C17.1168 31.9859 31.8849 17.2173 50.1031 17.2173Z" fill="white"/>
</g>
<defs>
<clipPath id="clip0_289_2008">
<rect width="100" height="100" fill="white" transform="translate(0 0.333374)"/>
</clipPath>
</defs>
</svg>
