<svg width="100" height="101" viewBox="0 0 100 101" fill="none" xmlns="http://www.w3.org/2000/svg">
<g clip-path="url(#clip0_304_2259)">
<path d="M33.1667 100.333C42.3667 100.333 49.8333 92.8668 49.8333 83.6668V67.0001H33.1667C23.9667 67.0001 16.5 74.4668 16.5 83.6668C16.5 92.8668 23.9667 100.333 33.1667 100.333Z" fill="#0ACF83"/>
<path d="M16.5 50.3333C16.5 41.1333 23.9667 33.6666 33.1667 33.6666H49.8333V66.9999H33.1667C23.9667 66.9999 16.5 59.5333 16.5 50.3333Z" fill="#A259FF"/>
<path d="M16.5 17C16.5 7.80001 23.9667 0.333344 33.1667 0.333344H49.8333V33.6667H33.1667C23.9667 33.6667 16.5 26.2 16.5 17Z" fill="#F24E1E"/>
<path d="M49.8333 0.333344H66.4999C75.6999 0.333344 83.1666 7.80001 83.1666 17C83.1666 26.2 75.6999 33.6667 66.4999 33.6667H49.8333V0.333344Z" fill="#FF7262"/>
<path d="M83.1666 50.3333C83.1666 59.5333 75.6999 66.9999 66.4999 66.9999C57.2999 66.9999 49.8333 59.5333 49.8333 50.3333C49.8333 41.1333 57.2999 33.6666 66.4999 33.6666C75.6999 33.6666 83.1666 41.1333 83.1666 50.3333Z" fill="#1ABCFE"/>
</g>
<defs>
<clipPath id="clip0_304_2259">
<rect width="100" height="100" fill="white" transform="translate(0 0.333344)"/>
</clipPath>
</defs>
</svg>
