<svg width="100" height="100" viewBox="0 0 100 100" fill="none" xmlns="http://www.w3.org/2000/svg">
<g clip-path="url(#clip0_287_1876)">
<path d="M0 100V0H100V100H0Z" fill="#FFD600"/>
<path d="M65.377 74.8445C67.3012 77.9695 69.399 80.9498 73.8116 80.9498C77.5298 80.9498 79.4829 79.1124 79.4829 76.5516C79.4829 73.499 77.4719 72.4139 73.3776 70.6344L71.1351 69.6795C64.6681 66.9307 60.3712 63.4874 60.3712 56.2247C60.3712 49.5262 65.4928 44.4336 73.4933 44.4336C79.1936 44.4336 83.3024 46.4157 86.2538 51.5806L79.2659 56.0511C77.7323 53.3022 76.0686 52.2172 73.4933 52.2172C70.8747 52.2172 69.2109 53.8809 69.2109 56.0511C69.2109 58.7276 70.8747 59.8126 74.7231 61.462L76.9656 62.4168C84.59 65.672 88.8869 68.9851 88.8869 76.4359C88.8869 84.4799 82.5356 88.878 74.0286 88.878C65.6953 88.878 60.9644 84.6969 58.3313 79.5175L65.377 74.8445Z" fill="#000001"/>
<path d="M33.2049 75.076C34.6083 77.5933 36.7495 79.5175 39.8166 79.5175C42.7535 79.5175 44.4463 78.3601 44.4463 73.8462V44.4336H53.7055V75.264C53.7055 84.6246 48.2802 88.878 40.3519 88.878C33.2049 88.878 28.0255 84.0314 25.9277 79.5175L33.2049 75.076Z" fill="#000001"/>
</g>
<defs>
<clipPath id="clip0_287_1876">
<rect width="100" height="100" fill="white"/>
</clipPath>
</defs>
</svg>
