<svg width="100" height="101" viewBox="0 0 100 101" fill="none" xmlns="http://www.w3.org/2000/svg">
<g clip-path="url(#clip0_287_1908)">
<path d="M35.8398 40.4996L25.6185 46.1636C25.2387 46.3698 25 46.7604 25 47.1836V58.5009C25 58.924 25.2387 59.3147 25.6185 59.5317L35.8398 65.1849C36.2196 65.4019 36.6971 65.4019 37.0768 65.1849L47.2982 59.5317C47.6779 59.3147 47.9167 58.924 47.9167 58.5009V47.1836C47.9167 46.7604 47.6779 46.3698 47.2982 46.1636L37.0768 40.4996C36.8815 40.4019 36.6753 40.3477 36.4583 40.3477C36.2413 40.3477 36.0352 40.4019 35.8398 40.4996Z" fill="#388E3C"/>
<path d="M88.444 50.6884L86.7405 51.6324C86.6754 51.6758 86.632 51.73 86.632 51.806V53.694C86.632 53.77 86.6754 53.8242 86.7405 53.8676L88.444 54.8116C88.5091 54.8442 88.5851 54.8442 88.6502 54.8116L90.3537 53.8676C90.408 53.8242 90.4514 53.77 90.4514 53.694V51.806C90.4514 51.73 90.408 51.6758 90.3429 51.6324L88.6393 50.6884C88.6176 50.6775 88.5742 50.6667 88.5417 50.6667C88.5091 50.6667 88.4657 50.6775 88.444 50.6884Z" fill="#388E3C"/>
<path d="M74.4792 28.5096L69.5096 25.7318C69.3468 25.645 69.1515 25.645 68.9996 25.7426C68.8477 25.8294 68.75 25.9922 68.75 26.1767V42.9518L64.1602 40.4128C63.9649 40.3043 63.7587 40.25 63.5417 40.25C63.3247 40.25 63.1185 40.3043 62.9232 40.4128L52.7018 46.066C52.3221 46.2721 52.0833 46.6628 52.0833 47.0859V58.4032C52.0833 58.8264 52.3221 59.217 52.7018 59.434L62.9232 65.0872C63.303 65.3043 63.7804 65.3043 64.1602 65.0872L74.3815 59.434C74.7613 59.217 75 58.8264 75 58.4032V29.3885C75 29.0304 74.8047 28.6832 74.4792 28.5096ZM68.4679 55.7882L63.8238 58.3598C63.6502 58.4575 63.4332 58.4575 63.2596 58.3598L58.6155 55.7882C58.4419 55.6905 58.3333 55.5169 58.3333 55.3216V50.1784C58.3333 49.9831 58.4419 49.8095 58.6155 49.7118L63.2596 47.1402C63.3464 47.0859 63.444 47.0642 63.5417 47.0642C63.6393 47.0642 63.737 47.0968 63.8238 47.1402L68.4679 49.7118C68.6415 49.8095 68.75 49.9831 68.75 50.1784V55.3216C68.75 55.5169 68.6415 55.6905 68.4679 55.7882Z" fill="#37474F"/>
<path d="M35.8398 40.4996L25 58.5009C25 58.924 25.2387 59.3147 25.6185 59.5317L35.8398 65.1849C36.2196 65.4019 36.6971 65.4019 37.0768 65.1849L47.9167 47.1836C47.9167 46.7604 47.6779 46.3698 47.2982 46.1636L37.0768 40.4996C36.8815 40.4019 36.6753 40.3477 36.4583 40.3477C36.2413 40.3477 36.0352 40.4019 35.8398 40.4996Z" fill="#2E7D32"/>
<path d="M35.8398 40.4996L25.6185 46.1636C25.2387 46.3698 25 46.7604 25 47.1836L35.8398 65.1849C36.2196 65.4019 36.6971 65.4019 37.0768 65.1849L47.2982 59.5317C47.6779 59.3147 47.9167 58.924 47.9167 58.5009L37.0768 40.4996C36.8815 40.4019 36.6753 40.3477 36.4583 40.3477C36.2413 40.3477 36.0352 40.4019 35.8398 40.4996Z" fill="#4CAF50"/>
<path d="M99.3815 46.066L89.1602 40.4128C88.9649 40.3043 88.7587 40.25 88.5417 40.25C88.3247 40.25 88.1185 40.3043 87.9232 40.4128L77.7018 46.066C77.3221 46.2721 77.0833 46.6736 77.0833 47.1076V58.3815C77.0833 58.8155 77.3221 59.2279 77.7018 59.434L87.9232 65.0981C88.3138 65.3043 88.7804 65.3043 89.1602 65.0981L93.8802 62.4831C94.3034 62.2444 94.3034 61.6259 93.8694 61.3872L83.6155 55.7882C83.4419 55.6905 83.3333 55.5061 83.3333 55.3108V50.1784C83.3333 49.9831 83.4418 49.8095 83.6046 49.7118L88.2596 47.1402C88.3464 47.0968 88.444 47.0751 88.5417 47.0751C88.6393 47.0751 88.737 47.0968 88.8238 47.1402L93.4787 49.7227C93.6415 49.8095 93.75 49.9831 93.75 50.1784V54.3668C93.75 54.5512 93.8477 54.714 93.9996 54.8116C94.1515 54.8984 94.3468 54.8984 94.5096 54.8008L99.5009 51.9036C99.8047 51.7192 100 51.3937 100 51.0356V47.1185C100 46.6736 99.7613 46.2721 99.3815 46.066Z" fill="#37474F"/>
<path d="M22.2982 46.066L12.0768 40.4128C11.8815 40.3043 11.6753 40.25 11.4583 40.25C11.2413 40.25 11.0352 40.3043 10.8398 40.4128L0.618489 46.066C0.238715 46.2721 0 46.6736 0 47.1076V62.6675C0 62.8411 0.0976561 63.0148 0.249566 63.1016C0.412328 63.1884 0.596789 63.1884 0.75955 63.1016L5.75087 60.1936C6.06554 60.02 6.25 59.6836 6.25 59.3255V50.1784C6.25 49.9831 6.35851 49.8095 6.52127 49.7118L11.1762 47.1402C11.263 47.0968 11.3607 47.0642 11.4583 47.0642C11.556 47.0642 11.6536 47.0968 11.7404 47.1402L16.3954 49.7118C16.5582 49.8095 16.6667 49.9831 16.6667 50.1784V59.3255C16.6667 59.6836 16.8511 60.02 17.1658 60.1936L22.1571 63.1016C22.3199 63.1884 22.5152 63.1884 22.6671 63.1016C22.819 63.0148 22.9167 62.8411 22.9167 62.6675V47.1185C22.9167 46.6736 22.6779 46.2721 22.2982 46.066Z" fill="#37474F"/>
</g>
<defs>
<clipPath id="clip0_287_1908">
<rect width="100" height="100" fill="white" transform="translate(0 0.666672)"/>
</clipPath>
</defs>
</svg>
