<svg width="100" height="100" viewBox="0 0 100 100" fill="none" xmlns="http://www.w3.org/2000/svg">
<path d="M0 31.0001H100V64.3334H50V69.889H27.7778V64.3334H0V31.0001ZM5.55556 58.7778H16.6667V42.1112H22.2222V58.7778H27.7778V36.5556H5.55556V58.7778ZM33.3333 36.5556V64.3334H44.4444V58.7778H55.5556V36.5556H33.3333ZM44.4444 42.1112H50V53.2223H44.4444V42.1112ZM61.1111 36.5556V58.7778H72.2222V42.1112H77.7778V58.7778H83.3333V42.1112H88.8889V58.7778H94.4444V36.5556H61.1111Z" fill="#CB3837"/>
<path d="M5.55554 58.7779H16.6667V42.1113H22.2222V58.7779H27.7778V36.5557H5.55554V58.7779Z" fill="white"/>
<path d="M33.3334 36.5557V64.3335H44.4445V58.7779H55.5556V36.5557H33.3334ZM50 53.2224H44.4445V42.1113H50V53.2224Z" fill="white"/>
<path d="M61.1111 36.5557V58.7779H72.2222V42.1113H77.7778V58.7779H83.3333V42.1113H88.8889V58.7779H94.4444V36.5557H61.1111Z" fill="white"/>
</svg>
