<svg width="100" height="101" viewBox="0 0 100 101" fill="none" xmlns="http://www.w3.org/2000/svg">
<g clip-path="url(#clip0_287_1927)">
<mask id="mask0_287_1927" style="mask-type:luminance" maskUnits="userSpaceOnUse" x="1" y="25" width="98" height="52">
<path d="M1.40601 50.6348C1.40601 64.7522 23.1627 76.197 49.9998 76.197C76.837 76.197 98.5939 64.7522 98.5939 50.6348C98.5939 36.5174 76.837 25.0725 49.9998 25.0725C23.1627 25.0725 1.40601 36.5174 1.40601 50.6348Z" fill="white"/>
</mask>
<g mask="url(#mask0_287_1927)">
<path d="M1.40601 50.6348C1.40601 64.7522 23.1627 76.197 49.9998 76.197C76.837 76.197 98.5939 64.7522 98.5939 50.6348C98.5939 36.5174 76.837 25.0725 49.9998 25.0725C23.1627 25.0725 1.40601 36.5174 1.40601 50.6348Z" fill="url(#paint0_radial_287_1927)"/>
</g>
<mask id="mask1_287_1927" style="mask-type:luminance" maskUnits="userSpaceOnUse" x="-1" y="22" width="102" height="58">
<path d="M-0.618652 22.1622H100.619V79.1081H-0.618652V22.1622Z" fill="white"/>
</mask>
<g mask="url(#mask1_287_1927)">
<path d="M49.9999 74.2994C75.7888 74.2994 96.6955 63.7045 96.6955 50.6351C96.6955 37.5658 75.7888 26.9707 49.9999 26.9707C24.211 26.9707 3.30426 37.5658 3.30426 50.6351C3.30426 63.7045 24.211 74.2994 49.9999 74.2994Z" fill="#777BB3"/>
</g>
<mask id="mask2_287_1927" style="mask-type:luminance" maskUnits="userSpaceOnUse" x="-1" y="22" width="102" height="58">
<path d="M-0.618652 22.1622H100.619V79.1081H-0.618652V22.1622Z" fill="white"/>
</mask>
<g mask="url(#mask2_287_1927)">
<path d="M27.8076 53.5692C29.9281 53.5692 31.5112 53.1781 32.5129 52.4073C33.5038 51.6443 34.1882 50.3224 34.5469 48.4785C34.8814 46.755 34.754 45.5516 34.1683 44.9022C33.5695 44.2389 32.2749 43.9025 30.3204 43.9025H26.9316L25.0529 53.5692H27.8076ZM16.7237 65.4769C16.5664 65.4769 16.417 65.4066 16.317 65.2849C16.2168 65.1635 16.1762 65.0035 16.2063 64.8491L21.1852 39.232C21.2334 38.9844 21.4504 38.8054 21.7028 38.8054H32.4336C35.8061 38.8054 38.3162 39.7211 39.894 41.5274C41.4803 43.3432 41.9701 45.8813 41.3498 49.0712C41.0975 50.3707 40.6633 51.5777 40.0596 52.6582C39.4552 53.74 38.6563 54.741 37.6849 55.6338C36.5221 56.7221 35.206 57.5113 33.7767 57.9757C32.3701 58.4339 30.5637 58.6662 28.4077 58.6662H24.0625L22.8217 65.0501C22.7735 65.2979 22.5566 65.4769 22.3043 65.4769H16.7237Z" fill="black"/>
<path d="M27.3663 44.4296H30.3205C32.6793 44.4296 33.4987 44.9472 33.7771 45.2557C34.239 45.7678 34.3262 46.8477 34.0293 48.3784C33.6957 50.092 33.0774 51.3071 32.1912 51.9894C31.284 52.6878 29.809 53.0418 27.8076 53.0418H25.6926L27.3663 44.4296ZM32.4336 38.278H21.7027C21.1979 38.278 20.7639 38.6359 20.6676 39.1314L15.6887 64.7484C15.6286 65.0576 15.7098 65.3773 15.91 65.6203C16.1104 65.8634 16.4088 66.004 16.7238 66.004H22.3041C22.8091 66.004 23.243 65.6462 23.3393 65.1507L24.4972 59.1934H28.4077C30.6191 59.1934 32.4807 58.9522 33.9404 58.4768C35.4416 57.9891 36.8227 57.1621 38.0451 56.019C39.056 55.0889 39.8888 54.0449 40.5198 52.9156C41.1509 51.786 41.6044 50.5263 41.8675 49.1716C42.5204 45.8139 41.99 43.1251 40.2911 41.1805C38.6087 39.2546 35.965 38.278 32.4336 38.278ZM24.4132 54.0964H27.8076C30.0575 54.0964 31.7334 53.6726 32.8345 52.8249C33.9358 51.9771 34.6786 50.562 35.0646 48.5791C35.4338 46.6753 35.2656 45.3318 34.5599 44.5491C33.8534 43.7665 32.4405 43.3751 30.3205 43.3751H26.497L24.4132 54.0964ZM32.4336 39.3326C35.6618 39.3326 38.0168 40.1798 39.497 41.8743C40.9771 43.5687 41.4228 45.9339 40.8323 48.9705C40.5892 50.2214 40.1781 51.3651 39.5993 52.4012C39.0198 53.438 38.2632 54.386 37.3282 55.2456C36.2138 56.2884 34.976 57.0315 33.6138 57.4741C32.2517 57.9179 30.5168 58.1388 28.4077 58.1388H23.6277L22.3041 64.9495H16.7238L21.7027 39.3326H32.4336Z" fill="white"/>
<path d="M54.1448 58.6662C53.9874 58.6662 53.8381 58.5959 53.7381 58.4743C53.6378 58.3528 53.5972 58.1931 53.6272 58.0384L55.8297 46.7039C56.0392 45.6259 55.9875 44.8522 55.6843 44.5253C55.4987 44.3255 54.9412 43.9903 53.2928 43.9903H49.3027L46.5336 58.2395C46.4854 58.4873 46.2684 58.6662 46.016 58.6662H40.4796C40.3221 58.6662 40.1729 58.5959 40.0727 58.4743C39.9725 58.3528 39.9319 58.1929 39.962 58.0384L44.9409 32.4213C44.989 32.1737 45.2061 31.9948 45.4585 31.9948H50.9949C51.1524 31.9948 51.3016 32.0651 51.4018 32.1865C51.502 32.3082 51.5426 32.4679 51.5125 32.6226L50.311 38.8054H54.6034C57.8734 38.8054 60.0908 39.3819 61.3822 40.5679C62.6987 41.7779 63.1094 43.7125 62.6032 46.3186L60.2867 58.2395C60.2386 58.4873 60.0217 58.6662 59.7691 58.6662H54.1448Z" fill="black"/>
<path d="M50.9949 31.4674H45.4585C44.9535 31.4674 44.5196 31.8252 44.4233 32.3207L39.4444 57.9377C39.3843 58.2469 39.4655 58.5666 39.6658 58.8097C39.8662 59.0528 40.1646 59.1934 40.4796 59.1934H46.016C46.5208 59.1934 46.9549 58.8355 47.0512 58.3401L49.7374 44.5175H53.2928C54.9384 44.5175 55.2838 44.869 55.2977 44.8841C55.3975 44.9915 55.5288 45.4889 55.3121 46.6032L53.1096 57.9377C53.0495 58.2469 53.1307 58.5666 53.3311 58.8097C53.5315 59.0528 53.8299 59.1934 54.1449 59.1934H59.7691C60.2739 59.1934 60.7081 58.8355 60.8044 58.3401L63.1207 46.4192C63.6643 43.6209 63.1993 41.5218 61.7391 40.1798C60.3456 38.9001 58.0116 38.278 54.6034 38.278H50.9504L52.0301 32.7232C52.0901 32.414 52.009 32.0941 51.8087 31.8512C51.6083 31.6082 51.3099 31.4674 50.9949 31.4674ZM50.9949 32.5219L49.6713 39.3326H54.6034C57.7068 39.3326 59.8474 39.8743 61.0255 40.9563C62.2036 42.0389 62.5565 43.7932 62.0857 46.2181L59.7691 58.1388H54.1449L56.3473 46.8045C56.5979 45.5151 56.5058 44.6356 56.0707 44.1667C55.6353 43.6977 54.7092 43.4629 53.2928 43.4629H48.8679L46.016 58.1388H40.4796L45.4585 32.5219H50.9949Z" fill="white"/>
<path d="M71.3634 53.5692C73.4839 53.5692 75.067 53.1781 76.0686 52.4073C77.0596 51.6445 77.744 50.3226 78.1029 48.4785C78.4373 46.755 78.3099 45.5516 77.7241 44.9022C77.1253 44.2389 75.8306 43.9025 73.8762 43.9025H70.4874L68.6087 53.5692H71.3634ZM60.2797 65.4769C60.1224 65.4769 59.973 65.4066 59.873 65.2849C59.7728 65.1635 59.732 65.0035 59.7621 64.8491L64.741 39.232C64.7893 38.9844 65.0062 38.8054 65.2587 38.8054H75.9894C79.362 38.8054 81.872 39.7211 83.45 41.5274C85.0362 43.343 85.5259 45.8812 84.9058 49.0712C84.653 50.3707 84.2191 51.5777 83.6154 52.6582C83.0109 53.74 82.2121 54.741 81.2407 55.6338C80.0779 56.7221 78.7618 57.5113 77.3325 57.9757C75.9259 58.4339 74.1195 58.6662 71.9634 58.6662H67.6181L66.3778 65.0501C66.3295 65.2979 66.1126 65.4769 65.86 65.4769H60.2797Z" fill="black"/>
<path d="M70.9221 44.4296H73.8763C76.2351 44.4296 77.0545 44.9472 77.3329 45.2557C77.795 45.7678 77.8822 46.8477 77.5851 48.3782C77.2515 50.092 76.633 51.3071 75.747 51.9894C74.8398 52.6878 73.3648 53.0418 71.3634 53.0418H69.2485L70.9221 44.4296ZM75.9894 38.278H65.2586C64.7538 38.278 64.3199 38.6359 64.2236 39.1314L59.2447 64.7484C59.1846 65.0576 59.2658 65.3773 59.466 65.6203C59.6663 65.8634 59.9648 66.004 60.2797 66.004H65.8601C66.3648 66.004 66.799 65.6462 66.8953 65.1507L68.053 59.1934H71.9635C74.1749 59.1934 76.0365 58.9522 77.4962 58.4768C78.9974 57.9891 80.3788 57.1619 81.6012 56.0186C82.6122 55.0887 83.4446 54.0449 84.0756 52.9156C84.7067 51.786 85.1602 50.5263 85.4233 49.1716C86.0762 45.8137 85.5458 43.125 83.8469 41.1804C82.1645 39.2546 79.5209 38.278 75.9894 38.278ZM67.9692 54.0964H71.3634C73.6133 54.0964 75.2892 53.6726 76.3903 52.8249C77.4918 51.9771 78.2344 50.562 78.6203 48.5791C78.9898 46.6753 78.8216 45.3318 78.1157 44.5491C77.4092 43.7665 75.9963 43.3751 73.8763 43.3751H70.0528L67.9692 54.0964ZM75.9894 39.3326C79.2176 39.3326 81.5726 40.1798 83.0528 41.8743C84.5331 43.5687 84.9786 45.9339 84.3881 48.9705C84.145 50.2214 83.7339 51.3651 83.1551 52.4012C82.5756 53.438 81.819 54.386 80.8839 55.2456C79.7696 56.2884 78.5318 57.0315 77.1696 57.4741C75.8075 57.9179 74.0726 58.1388 71.9635 58.1388H67.1835L65.8601 64.9495H60.2797L65.2586 39.3326H75.9894Z" fill="white"/>
</g>
</g>
<defs>
<radialGradient id="paint0_radial_287_1927" cx="0" cy="0" r="1" gradientUnits="userSpaceOnUse" gradientTransform="translate(30.582 34.0594) scale(63.8107 63.8107)">
<stop stop-color="#AEB2D5"/>
<stop offset="0.3" stop-color="#AEB2D5"/>
<stop offset="0.75" stop-color="#484C89"/>
<stop offset="1" stop-color="#484C89"/>
</radialGradient>
<clipPath id="clip0_287_1927">
<rect width="100" height="100" fill="white" transform="translate(0 0.666687)"/>
</clipPath>
</defs>
</svg>
