<svg width="100" height="101" viewBox="0 0 100 101" fill="none" xmlns="http://www.w3.org/2000/svg">
<g clip-path="url(#clip0_290_2018)">
<path d="M49.2808 0.334057C45.8772 0.349872 42.6268 0.640156 39.7667 1.14624C31.3414 2.63472 29.8117 5.75023 29.8117 11.4958V19.0839H49.7217V21.6132H29.8117H22.3396C16.5532 21.6132 11.4864 25.0912 9.90162 31.7075C8.07356 39.2913 7.99247 44.0237 9.90162 51.9424C11.3169 57.8368 14.6968 62.0367 20.4832 62.0367H27.3287V52.9402C27.3287 46.3686 33.0147 40.5719 39.7667 40.5719H59.6536C65.1894 40.5719 69.6086 36.0139 69.6086 30.4544V11.4958C69.6086 6.10002 65.0567 2.04677 59.6536 1.14624C56.2333 0.576894 52.6845 0.318241 49.2808 0.334057ZM38.5136 6.43702C40.5702 6.43702 42.2497 8.14392 42.2497 10.2427C42.2497 12.334 40.5702 14.0251 38.5136 14.0251C36.4497 14.0251 34.7776 12.334 34.7776 10.2427C34.7776 8.14392 36.4497 6.43702 38.5136 6.43702Z" fill="url(#paint0_linear_290_2018)"/>
<path d="M72.0916 21.6132V30.4543C72.0916 37.3088 66.2803 43.078 59.6536 43.078H39.7667C34.3194 43.078 29.8117 47.7402 29.8117 53.1954V72.1541C29.8117 77.5498 34.5037 80.7235 39.7667 82.2715C46.0691 84.1247 52.1128 84.4596 59.6536 82.2715C64.666 80.8203 69.6086 77.8996 69.6086 72.1541V64.566H49.7218V62.0366H69.6086H79.5637C85.3501 62.0366 87.5063 58.0005 89.5187 51.9424C91.5974 45.7056 91.5089 39.708 89.5187 31.7074C88.0887 25.947 85.3574 21.6132 79.5637 21.6132H72.0916ZM60.9067 69.6247C62.9706 69.6247 64.6427 71.3158 64.6427 73.4072C64.6427 75.5059 62.9706 77.2128 60.9067 77.2128C58.8501 77.2128 57.1706 75.5059 57.1706 73.4072C57.1706 71.3158 58.8501 69.6247 60.9067 69.6247Z" fill="url(#paint1_linear_290_2018)"/>
<path opacity="0.44382" d="M49.9477 100.333C64.6833 100.333 76.6288 98.017 76.6288 95.1597C76.6288 92.3023 64.6833 89.986 49.9477 89.986C35.2121 89.986 23.2665 92.3023 23.2665 95.1597C23.2665 98.017 35.2121 100.333 49.9477 100.333Z" fill="url(#paint2_radial_290_2018)"/>
</g>
<defs>
<linearGradient id="paint0_linear_290_2018" x1="8.5" y1="0.333374" x2="54.4104" y2="39.4554" gradientUnits="userSpaceOnUse">
<stop stop-color="#5A9FD4"/>
<stop offset="1" stop-color="#306998"/>
</linearGradient>
<linearGradient id="paint1_linear_290_2018" x1="60.4282" y1="72.7692" x2="43.9573" y2="49.6885" gradientUnits="userSpaceOnUse">
<stop stop-color="#FFD43B"/>
<stop offset="1" stop-color="#FFE873"/>
</linearGradient>
<radialGradient id="paint2_radial_290_2018" cx="0" cy="0" r="1" gradientUnits="userSpaceOnUse" gradientTransform="translate(49.9477 95.1597) rotate(-90) scale(5.1737 22.7406)">
<stop stop-color="#B8B8B8" stop-opacity="0.498039"/>
<stop offset="1" stop-color="#7F7F7F" stop-opacity="0"/>
</radialGradient>
<clipPath id="clip0_290_2018">
<rect width="100" height="100" fill="white" transform="translate(0 0.333374)"/>
</clipPath>
</defs>
</svg>
