<svg width="100" height="100" viewBox="0 0 100 100" fill="none" xmlns="http://www.w3.org/2000/svg">
<path d="M50 58.8261C54.9225 58.8261 58.913 54.8356 58.913 49.913C58.913 44.9905 54.9225 41 50 41C45.0774 41 41.0869 44.9905 41.0869 49.913C41.0869 54.8356 45.0774 58.8261 50 58.8261Z" fill="#61DAFB"/>
<path fill-rule="evenodd" clip-rule="evenodd" d="M7.38902 44.6014C5.23764 46.5435 4.34783 48.4038 4.34783 50.0957C4.34783 51.7876 5.23764 53.6479 7.38902 55.59C9.54016 57.5319 12.775 59.3803 16.9573 60.9772C25.3069 64.1652 36.9887 66.1827 50 66.1827C63.0113 66.1827 74.6931 64.1652 83.0427 60.9772C87.225 59.3803 90.4598 57.5319 92.611 55.59C94.7624 53.6479 95.6522 51.7876 95.6522 50.0957C95.6522 48.4038 94.7624 46.5435 92.611 44.6014C90.4598 42.6595 87.225 40.8111 83.0427 39.2142C74.6931 36.0262 63.0113 34.0088 50 34.0088C36.9887 34.0088 25.3069 36.0262 16.9573 39.2142C12.775 40.8111 9.54016 42.6595 7.38902 44.6014ZM15.4064 35.1524C24.3664 31.7313 36.5977 29.6609 50 29.6609C63.4023 29.6609 75.6336 31.7313 84.5936 35.1524C89.0661 36.8601 92.8353 38.9466 95.5244 41.3741C98.2132 43.8014 100 46.745 100 50.0957C100 53.4464 98.2132 56.39 95.5244 58.8173C92.8353 61.2449 89.0661 63.3313 84.5936 65.039C75.6336 68.4601 63.4023 70.5305 50 70.5305C36.5977 70.5305 24.3664 68.4601 15.4064 65.039C10.9339 63.3313 7.16475 61.2449 4.47563 58.8173C1.78675 56.39 0 53.4464 0 50.0957C0 46.745 1.78675 43.8014 4.47563 41.3741C7.16475 38.9466 10.9339 36.8601 15.4064 35.1524Z" fill="#61DAFB"/>
<path fill-rule="evenodd" clip-rule="evenodd" d="M33.4527 10.4464C30.6951 9.55428 28.6391 9.71384 27.1739 10.5598C25.7087 11.4057 24.5425 13.1065 23.9363 15.9407C23.3302 18.7746 23.3468 22.5002 24.055 26.9206C25.4689 35.7457 29.5626 46.8711 36.0683 58.1392C42.574 69.4073 50.162 78.5153 57.0977 84.1523C60.5718 86.9758 63.79 88.853 66.5473 89.745C69.3049 90.6372 71.3609 90.4776 72.8261 89.6317C74.2913 88.7857 75.4575 87.085 76.0637 84.2508C76.6698 81.4169 76.6532 77.6912 75.945 73.2708C74.5311 64.4458 70.4374 53.3204 63.9317 42.0522C57.4261 30.7841 49.838 21.6761 42.9023 16.0392C39.4282 13.2156 36.21 11.3384 33.4527 10.4464ZM45.6445 12.6651C53.0872 18.7142 60.9959 28.2716 67.697 39.8783C74.3982 51.4851 78.7208 63.1129 80.2381 72.583C80.9954 77.3102 81.0731 81.6176 80.3153 85.1602C79.5577 88.7025 77.9018 91.7216 75 93.397C72.0982 95.0724 68.6556 94.9968 65.209 93.8818C61.7622 92.7667 58.0707 90.5458 54.3555 87.5263C46.9128 81.4772 39.0041 71.9198 32.303 60.3131C25.6018 48.7064 21.2792 37.0786 19.7619 27.6084C19.0046 22.8813 18.9269 18.5739 19.6847 15.0313C20.4423 11.489 22.0982 8.46981 25 6.79445C27.9018 5.11908 31.3444 5.19466 34.791 6.30964C38.2378 7.42473 41.9293 9.64567 45.6445 12.6651Z" fill="#61DAFB"/>
<path fill-rule="evenodd" clip-rule="evenodd" d="M76.0637 15.9407C75.4575 13.1065 74.2913 11.4057 72.8261 10.5598C71.3609 9.71384 69.3049 9.55428 66.5473 10.4464C63.79 11.3384 60.5718 13.2156 57.0977 16.0392C50.162 21.6761 42.5739 30.7841 36.0683 42.0522C29.5626 53.3204 25.4689 64.4458 24.055 73.2708C23.3468 77.6912 23.3302 81.4169 23.9363 84.2508C24.5425 87.085 25.7087 88.7857 27.1739 89.6317C28.6391 90.4776 30.6951 90.6372 33.4527 89.745C36.21 88.853 39.4282 86.9758 42.9023 84.1523C49.838 78.5153 57.426 69.4073 63.9317 58.1392C70.4374 46.8711 74.5311 35.7457 75.945 26.9206C76.6532 22.5002 76.6698 18.7746 76.0637 15.9407ZM80.2381 27.6084C78.7208 37.0786 74.3982 48.7064 67.697 60.3131C60.9959 71.9198 53.0872 81.4773 45.6445 87.5263C41.9293 90.5458 38.2378 92.7667 34.791 93.8818C31.3444 94.9968 27.9018 95.0724 25 93.397C22.0982 91.7216 20.4423 88.7025 19.6847 85.1602C18.9269 81.6176 19.0046 77.3102 19.7619 72.583C21.2792 63.1129 25.6018 51.4851 32.303 39.8783C39.0041 28.2716 46.9128 18.7142 54.3555 12.6651C58.0707 9.64567 61.7622 7.42473 65.209 6.30964C68.6556 5.19466 72.0982 5.11908 75 6.79445C77.9018 8.46981 79.5577 11.489 80.3153 15.0313C81.0731 18.5739 80.9954 22.8813 80.2381 27.6084Z" fill="#61DAFB"/>
</svg>
